<svg width="15" height="19" fill="none" xmlns="http://www.w3.org/2000/svg"><path fill-rule="evenodd" clip-rule="evenodd" d="M7.699.498C2.836.498.384 3.968.384 6.864c0 1.752.666 3.31 2.096 3.892.235.096.445.003.513-.255.047-.178.16-.63.209-.818.069-.255.042-.345-.147-.567-.413-.484-.676-1.111-.676-1.999 0-2.575 1.935-4.88 5.04-4.88 2.747 0 4.257 1.673 4.257 3.905 0 2.938-1.306 5.417-3.245 5.417-1.07 0-1.871-.882-1.615-1.963.309-1.29.904-2.683.904-3.615 0-.834-.45-1.53-1.38-1.53-1.095 0-1.974 1.128-1.974 2.638 0 .962.327 1.613.327 1.613l-1.317 5.552c-.391 1.647-.058 3.667-.03 3.872.016.12.172.149.243.058.1-.132 1.404-1.733 1.848-3.334.125-.454.719-2.8.719-2.8.356.674 1.395 1.27 2.5 1.27 3.29 0 5.522-2.988 5.522-6.984 0-3.023-2.57-5.838-6.479-5.838z" fill="#fff"/></svg>