<svg width="13" height="24" fill="none" xmlns="http://www.w3.org/2000/svg"><path d="M1.17 13.899h2.38v8.794c0 .39.316.708.708.708H8.04a.709.709 0 00.708-.707V13.9h2.254a.709.709 0 00.703-.62l.47-3.778a.709.709 0 00-.702-.796H8.749c.107-2.334-.41-3.024 1.107-3.024 1.027-.123 2.648.398 2.648-.708V1.596a.708.708 0 00-.612-.702A25.43 25.43 0 008.97.737c-6.62 0-5.257 7.34-5.42 7.968H1.17a.709.709 0 00-.708.708v3.777a.71.71 0 00.709.709zm.709-3.777h2.378a.708.708 0 00.708-.708V6.438c0-2.722 1.46-4.283 4.004-4.283.83 0 1.592.04 2.117.082v2.03c-.38.193-3.754-.835-3.754 2.546v2.602c0 .391.317.708.708.708h2.63l-.294 2.361H8.04a.709.709 0 00-.708.708v8.793H4.966v-8.793a.709.709 0 00-.708-.709h-2.38v-2.36z" fill="#fff"/></svg>