<svg width="15" height="19" fill="none" xmlns="http://www.w3.org/2000/svg"><path fill-rule="evenodd" clip-rule="evenodd" d="M7.807.498C2.944.498.493 3.968.493 6.864c0 1.752.666 3.31 2.096 3.892.234.096.444.003.512-.255.047-.178.16-.63.209-.818.069-.255.042-.345-.147-.567-.413-.484-.676-1.111-.676-1.999 0-2.575 1.936-4.88 5.04-4.88 2.748 0 4.258 1.673 4.258 3.905 0 2.938-1.306 5.417-3.245 5.417-1.07 0-1.872-.882-1.616-1.963.309-1.29.904-2.683.904-3.615 0-.834-.45-1.53-1.38-1.53-1.094 0-1.973 1.128-1.973 2.638 0 .962.326 1.613.326 1.613l-1.317 5.552c-.39 1.647-.058 3.667-.03 3.872.017.12.172.149.243.058.1-.132 1.404-1.733 1.848-3.334.125-.454.72-2.8.72-2.8.355.674 1.395 1.27 2.5 1.27 3.29 0 5.521-2.988 5.521-6.984 0-3.023-2.57-5.838-6.479-5.838z" fill="#EB5757"/></svg>