<svg width="17" height="16" fill="none" xmlns="http://www.w3.org/2000/svg"><mask id="a" fill="#fff"><path d="M16.713 12.443a.763.763 0 01-.233.668l-2.222 2.205a1.25 1.25 0 01-.392.284 1.689 1.689 0 01-.377.132c-.066.014-.133.02-.2.026a2.288 2.288 0 01-.217.009c-.211 0-.554-.037-1.027-.109-.473-.072-1.052-.25-1.737-.534-.685-.284-1.461-.71-2.33-1.278-.868-.568-1.792-1.347-2.772-2.338-.78-.769-1.426-1.503-1.938-2.205a15.708 15.708 0 01-1.236-1.946 10.479 10.479 0 01-.701-1.62 8.594 8.594 0 01-.318-1.253 4.137 4.137 0 01-.06-.95c.008-.14.016-.281.055-.415.026-.09.062-.18.106-.271.078-.162.172-.293.284-.393L3.618.234A.736.736 0 014.154 0a.63.63 0 01.385.125c.11.084.206.187.283.31l1.788 3.39a.81.81 0 01.083.584 1.04 1.04 0 01-.284.535l-.818.818a.278.278 0 00-.059.109.44.44 0 00.004.25c.052.203.143.428.272.677.134.267.34.593.618.977.278.384.674.826 1.186 1.328.5.512.946.91 1.336 1.194.39.284.715.492.977.626s.462.214.601.242l.1.02a.42.42 0 00.217-.003.279.279 0 00.11-.059l.951-.968c.2-.178.434-.268.702-.268a.88.88 0 01.443.096.03.03 0 00.016.005.03.03 0 01.015.004l3.217 1.9c.234.145.373.328.417.55z"/></mask><path d="M16.713 12.443l.992-.13-.004-.033-.007-.033-.98.196zm-.233.668l.704.71.003-.003-.707-.707zm-2.222 2.205l-.704-.71-.02.02-.02.02.744.67zm-.392.284l-.435-.901.435.9zm-3.558-.476l.383-.924-.383.924zm-2.33-1.278l.547-.837-.547.837zm-2.772-2.338l.71-.703-.008-.01-.702.713zM3.268 9.303l-.807.59.807-.59zM2.032 7.357l.886-.463-.886.463zm-1.085-3.7l-.999-.055.999.056zm.167-.81l-.9-.434.9.435zm.284-.392l.669.743.02-.017.018-.019-.707-.707zM3.618.234l.708.707L3.62.234zm1.203.2l.885-.466-.019-.036-.022-.035-.844.537zm1.788 3.39l-.885.467.006.012.007.012.872-.49zm-.2 1.12L5.7 4.237l.707.707zm-.82.818l.708.707-.707-.707zm.218 1.036L6.7 6.35l-.003-.006-.003-.007-.888.46zM7.61 9.103l.715-.7-.008-.008-.008-.007-.7.715zm1.336 1.194l-.59.808h.001l.589-.808zm1.578.868l.197-.98h-.001l-.196.98zm.426-.042l.707.708.006-.007-.713-.7zm.952-.968l-.664-.748-.025.023-.024.024.713.7zm4.393 1.737l.526-.85-.009-.006-.009-.005-.508.86zm-3.217-1.9l.509-.861-.509.86zm-.03-.009l.5-.865-.5.865zm-2.425 1.202l-.196.98.196-.98zm-5.09-5.064l-.967.252.968-.252zm7.955 9.611l.211.977-.211-.977zm2.233-3.16a.238.238 0 01.014-.1c.017-.049.04-.07.036-.068l1.415 1.414c.399-.4.593-.927.518-1.505l-1.983.26zm.053-.17l-2.221 2.204 1.409 1.42 2.22-2.205-1.408-1.42zm-2.26 2.245c.002-.002-.017.02-.084.052l.87 1.801c.256-.123.5-.29.701-.515l-1.486-1.338zm-.084.052a.693.693 0 01-.154.056l.424 1.954c.209-.045.41-.117.6-.209l-.87-1.801zm-.24.064a1.37 1.37 0 01-.119.004v2c.106 0 .215-.003.317-.014l-.199-1.99zm-.119.004c-.129 0-.406-.026-.876-.097l-.302 1.977c.477.073.884.12 1.178.12v-2zm-.876-.097c-.362-.056-.859-.202-1.505-.47l-.766 1.847c.723.3 1.385.51 1.969.6l.302-1.977zm-1.505-.47c-.61-.253-1.33-.645-2.166-1.191L7.43 14.683c.901.59 1.734 1.05 2.494 1.364l.766-1.847zm-2.166-1.191c-.793-.519-1.662-1.248-2.608-2.204L4.495 12.21c1.013 1.025 1.992 1.855 2.936 2.472l1.094-1.674zm-2.617-2.213c-.75-.74-1.359-1.434-1.832-2.083L2.46 9.893c.55.754 1.234 1.53 2.043 2.327l1.404-1.425zM4.076 8.713a14.72 14.72 0 01-1.158-1.82l-1.772.928c.34.65.781 1.341 1.315 2.072l1.615-1.18zm-1.158-1.82a9.497 9.497 0 01-.635-1.462l-1.904.612c.178.553.437 1.147.767 1.778l1.772-.928zm-.635-1.462A7.627 7.627 0 012 4.328L.026 4.64c.066.418.187.888.353 1.402l1.904-.612zM2 4.328a3.264 3.264 0 01-.056-.615l-1.997-.11A5.08 5.08 0 00.026 4.64L2 4.328zm-.056-.615l.007-.126-1.997-.107-.007.122 1.997.111zm.023-.313a.776.776 0 01.046-.118l-1.8-.87a2.772 2.772 0 00-.165.425l1.919.563zm.046-.118c.033-.067.055-.085.053-.084L.729 1.712a2.248 2.248 0 00-.516.7l1.801.87zm.09-.12L4.327.941 2.912-.473.69 1.748l1.415 1.414zM4.327.941c.002-.002-.016.016-.056.034A.3.3 0 014.153 1v-2c-.493 0-.918.204-1.241.527L4.326.94zM4.153 1a.384.384 0 01-.216-.075l1.2-1.6A1.623 1.623 0 004.154-1v2zM3.938.925c.01.008.024.02.04.046L5.665-.103a2.161 2.161 0 00-.527-.572l-1.2 1.6zM3.937.901l1.787 3.39 1.77-.933-1.788-3.39-1.77.933zm1.8 3.414a.205.205 0 01-.022-.07c-.004-.028 0-.044-.001-.042l1.957.412a1.812 1.812 0 00-.19-1.28l-1.744.98zm-.023-.112c-.005.02-.01.029-.01.03 0 0 0 .002-.003.004L7.115 5.65c.29-.29.474-.645.556-1.036l-1.957-.412zm-.013.034l-.818.818L6.297 6.47l.818-.818-1.414-1.414zm-.818.818c-.183.183-.264.39-.3.5l1.897.632a.816.816 0 01-.183.282L4.883 5.055zm-.316 1.318c.076.294.2.591.352.885l1.776-.92a2.335 2.335 0 01-.193-.469l-1.935.504zm.345.872c.168.336.409.71.703 1.117l1.62-1.174A6.416 6.416 0 016.7 6.35l-1.789.895zm.703 1.117c.324.446.762.933 1.296 1.455l1.399-1.43c-.49-.479-.842-.877-1.075-1.199l-1.62 1.174zm1.28 1.44c.524.535 1.012.975 1.463 1.303l1.178-1.616c-.33-.24-.732-.596-1.21-1.086l-1.43 1.399zm1.463 1.303c.409.298.783.54 1.111.709l.91-1.781a6.793 6.793 0 01-.843-.545l-1.178 1.617zm1.111.709c.276.14.579.276.86.332l.392-1.962c.014.003-.008 0-.077-.028a3.397 3.397 0 01-.265-.123l-.91 1.78zm.86.332l.099.02.393-1.962-.1-.02-.392 1.962zm.83-.016c.11-.036.317-.117.5-.3l-1.415-1.414a.818.818 0 01.282-.183l.633 1.897zm.505-.306l.952-.968-1.426-1.402-.952.968 1.426 1.402zm.903-.922a.126.126 0 01.017-.012c.002-.002.002-.002 0-.001h.002a.105.105 0 01.019-.002v-2c-.514 0-.983.18-1.366.52l1.328 1.495zm.038-.014c.036 0 .047.003.038 0a.35.35 0 01-.096-.039l1.002-1.731a1.871 1.871 0 00-.944-.23v2zm-.034-.035l3.216 1.9 1.017-1.722-3.216-1.9-1.017 1.722zm3.198 1.889c.032.02.027.023.01 0a.24.24 0 01-.046-.103l1.96-.392c-.11-.55-.455-.948-.87-1.205l-1.054 1.7zm-2.705-1.754a.97.97 0 01-.493-.135l1.017-1.722a1.03 1.03 0 00-.524-.143v2zm-.517-.139c.15.087.328.139.517.139v-2a.97.97 0 01.485.13l-1.002 1.731zm-2.119 1.316c.134.027.414.071.73-.034l-.632-1.898a.669.669 0 01.217-.035c.048 0 .077.006.078.006l-.393 1.961zm-5.845-6.61c-.115.344-.06.652-.016.818l1.935-.504c0 .001.039.135-.022.318l-1.897-.633zM1.952 3.587l.01-.151c.004-.033.007-.041.006-.036l-1.92-.563c-.077.264-.087.522-.093.643l1.997.107zm11.325 11.168c.01-.002.01-.002-.005 0a1.159 1.159 0 01-.055.005l-.027.003.199 1.99c.036-.003.176-.014.312-.044l-.424-1.954z" fill="url(#paint0_linear)" mask="url(#a)"/><defs><linearGradient id="paint0_linear" x1=".944" y1="7.883" x2="16.721" y2="7.883" gradientUnits="userSpaceOnUse"><stop stop-color="#F89C49"/><stop offset="1" stop-color="#EE3C2E"/></linearGradient></defs></svg>