<svg width="18" height="18" fill="none" xmlns="http://www.w3.org/2000/svg"><path d="M9 0C4.037 0 0 4.037 0 9s4.037 9 9 9 9-4.037 9-9-4.037-9-9-9zm5.95 4.15a7.65 7.65 0 011.736 4.79c-.253-.055-2.794-.57-5.352-.248-.21-.51-.406-.958-.676-1.51C13.5 6.02 14.788 4.37 14.951 4.15zm-.854-.889c-.138.197-1.296 1.753-4.03 2.777a41.03 41.03 0 00-2.867-4.5 7.667 7.667 0 016.897 1.723zM5.732 2.055A49.051 49.051 0 018.582 6.5c-3.596.955-6.763.94-7.107.936a7.716 7.716 0 014.257-5.382zm-4.42 6.957c0-.079.002-.157.005-.235.336.007 4.061.055 7.9-1.094.22.43.43.868.623 1.304-2.78.783-5.305 3.032-6.551 5.165a7.656 7.656 0 01-1.976-5.14zm2.97 6.064c.802-1.641 2.982-3.76 6.08-4.818 1.08 2.805 1.527 5.156 1.64 5.83a7.672 7.672 0 01-7.72-1.012zm9.013.308c-.079-.467-.488-2.718-1.493-5.48 2.409-.386 4.525.245 4.788.328a7.701 7.701 0 01-3.295 5.152z" fill="#F61067"/></svg>