<svg width="25" height="24" fill="none" xmlns="http://www.w3.org/2000/svg"><path d="M9.49 10.069h-6.9a.985.985 0 01-.985-.985V2.186A.985.985 0 012.59 1.2h6.9a.985.985 0 01.986.986v6.898a.985.985 0 01-.986.985zm0 12.811h-6.9a.985.985 0 01-.985-.986v-6.898a.985.985 0 01.985-.985h6.9a.986.986 0 01.986.985v6.898a.985.985 0 01-.986.986z" fill="#F89C49"/><path d="M13.431 2.186h9.854v1.97h-9.854v-1.97zm9.854 12.81h-9.854v1.97h9.854v-1.97z" fill="#EF4537"/><path opacity=".5" d="M23.285 19.923h-9.854v1.97h9.854v-1.97zm0-12.811h-9.854v1.971h9.854v-1.97z" fill="#F89C49"/></svg>