<svg width="20" height="19" fill="none" xmlns="http://www.w3.org/2000/svg"><path fill-rule="evenodd" clip-rule="evenodd" d="M18.5 18.248H1.726c-.804 0-1.455-.57-1.455-1.274V1.761C.27 1.06.92.488 1.725.488h16.776c.803 0 1.454.57 1.454 1.273v15.213c0 .704-.651 1.274-1.454 1.274zM3.68 15.323h2.9V7.304h-2.9v8.019zM5.15 3.44c-.992 0-1.64.598-1.64 1.385 0 .769.63 1.386 1.602 1.386h.019c1.01 0 1.64-.617 1.64-1.386-.018-.787-.63-1.385-1.62-1.385zm11.883 7.285c0-2.463-1.43-3.61-3.337-3.61-1.54 0-2.227.778-2.612 1.325V7.304h-2.9c.039.753 0 8.018 0 8.018h2.9v-4.477c0-.239.018-.48.095-.65.21-.479.687-.974 1.487-.974 1.05 0 1.468.735 1.468 1.813v4.288h2.9v-4.597zm-5.97-2.257l.02-.027v.027h-.02z" fill="#fff"/></svg>