<svg width="25" height="25" fill="none" xmlns="http://www.w3.org/2000/svg"><g clip-path="url(#clip0)"><path d="M21.314 24.227h-8.869a.985.985 0 01-.985-.986v-1.97a.985.985 0 01.985-.986h8.87a.985.985 0 01.984.986v1.97a.985.985 0 01-.985.986z" fill="#F89C49" fill-opacity=".5"/><path d="M21.314.577H3.577a.985.985 0 00-.986.986v1.97a.985.985 0 00.986.986h17.737a.985.985 0 00.986-.986v-1.97a.985.985 0 00-.986-.986z" fill="#EF4537"/><path d="M21.314 6.49H3.577a.985.985 0 00-.986.985v9.854a.985.985 0 00.986.985h17.737a.985.985 0 00.986-.985V7.475a.985.985 0 00-.986-.986z" fill="#F89C49"/></g><defs><clipPath id="clip0"><path fill="#fff" transform="translate(.62 .577)" d="M0 0h23.65v23.65H0z"/></clipPath></defs></svg>