<svg width="18" height="18" fill="none" xmlns="http://www.w3.org/2000/svg"><path d="M17.658 5.615L9.432.13a.782.782 0 00-.864 0L.342 5.615A.786.786 0 000 6.257v5.485c0 .25.13.502.342.643l8.226 5.485c.28.172.58.174.864 0l8.226-5.485a.787.787 0 00.342-.643V6.257a.786.786 0 00-.342-.642zM9.773 2.219l6.057 4.038-2.702 1.808-3.355-2.24V2.22zm-1.546 0v3.606l-3.355 2.24L2.17 6.257 8.227 2.22zm-6.68 5.485L3.485 9l-1.938 1.295V7.704zm6.68 8.076L2.17 11.742l2.702-1.808 3.355 2.24v3.606zM9 10.828L6.268 9 9 7.17 11.732 9 9 10.828zm.773 4.952v-3.606l3.355-2.24 2.702 1.808-6.057 4.038zm6.68-5.485L14.515 9l1.938-1.296v2.591z" fill="#F4F4ED"/></svg>