<svg width="21" height="21" fill="none" xmlns="http://www.w3.org/2000/svg"><path fill-rule="evenodd" clip-rule="evenodd" d="M17.545 3.572A9.79 9.79 0 0010.604.708C5.196.708.793 5.089.79 10.474c0 1.721.452 3.4 1.31 4.883l-1.392 5.06 5.202-1.36a9.855 9.855 0 004.69 1.19h.004c5.408 0 9.81-4.381 9.813-9.766a9.672 9.672 0 00-2.872-6.909zM10.605 18.6H10.6a8.17 8.17 0 01-4.152-1.133l-.297-.176-3.087.806.823-2.995-.193-.307a8.074 8.074 0 01-1.247-4.32c.002-4.476 3.66-8.117 8.16-8.117a8.136 8.136 0 015.765 2.38 8.068 8.068 0 012.387 5.744c-.003 4.475-3.661 8.118-8.156 8.118zm4.473-6.08c-.246-.124-1.45-.713-1.675-.795-.225-.082-.388-.122-.551.122-.164.244-.634.793-.778.956-.143.163-.286.183-.53.061-.246-.122-1.036-.38-1.973-1.21-.729-.648-1.22-1.447-1.364-1.691-.143-.245-.015-.377.108-.499.11-.108.245-.285.368-.427.122-.143.162-.244.244-.407.082-.163.042-.306-.02-.428S8.355 6.877 8.15 6.39c-.198-.473-.4-.41-.55-.417a10.525 10.525 0 00-.47-.008.907.907 0 00-.654.304c-.226.245-.858.835-.858 2.036 0 1.2.878 2.361 1 2.525.123.163 1.73 2.627 4.19 3.684.585.252 1.042.402 1.398.515.587.186 1.121.159 1.544.097.471-.07 1.45-.59 1.655-1.16.204-.57.204-1.058.143-1.16-.061-.103-.226-.165-.47-.287z" fill="#fff"/></svg>