<svg width="107" height="286" fill="none" xmlns="http://www.w3.org/2000/svg"><path d="M0 53.625c-29.5 0-53.5 24.056-53.5 53.625s24 53.625 53.5 53.625 53.5-24.056 53.5-53.625c0-29.57-24-53.625-53.5-53.625zM0 143c-19.667 0-35.667-16.037-35.667-35.75S-19.667 71.5 0 71.5s35.667 16.037 35.667 35.75S19.667 143 0 143zM0 0c-59.095 0-107 48.017-107 107.25 0 43.242 15.03 55.318 96.004 172.98 5.313 7.693 16.679 7.694 21.993 0C91.97 162.568 107 150.492 107 107.25 107 48.017 59.095 0 0 0zm0 264.735C-77.628 152.21-89.167 143.276-89.167 107.25c0-23.873 9.275-46.317 26.117-63.198C-46.21 27.172-23.818 17.875 0 17.875c23.817 0 46.209 9.297 63.05 26.177 16.842 16.881 26.117 39.325 26.117 63.198 0 36.024-11.532 44.95-89.167 157.485z" fill="url(#paint0_linear)" fill-opacity=".3"/><defs><linearGradient id="paint0_linear" x1="-107" y1="143.285" x2="107" y2="143.285" gradientUnits="userSpaceOnUse"><stop stop-color="#547DE4"/><stop offset="1" stop-color="#62B3E1"/></linearGradient></defs></svg>