<svg width="35" height="35" fill="none" xmlns="http://www.w3.org/2000/svg"><g clip-path="url(#clip0)"><path d="M17.485 27.758a1.52 1.52 0 01-2.492 1.17l-8.318-6.892h-4.43a1.52 1.52 0 01-1.522-1.521v-6.062c0-.84.681-1.522 1.522-1.522h4.43l8.318-6.892a1.521 1.521 0 012.493 1.172v20.547zm5.848-2.378a1.52 1.52 0 01-1.185-.441l-.204-.205a1.52 1.52 0 01-.147-1.982 8.78 8.78 0 001.74-5.267 8.75 8.75 0 00-1.974-5.574 1.52 1.52 0 01.105-2.035l.203-.203a1.524 1.524 0 012.254.113 12.033 12.033 0 012.74 7.699c0 2.648-.838 5.17-2.423 7.289-.264.353-.67.575-1.11.606zm6.29 4.702a1.523 1.523 0 01-2.239.094l-.2-.2a1.522 1.522 0 01-.088-2.055A16.242 16.242 0 0030.9 17.485c0-3.966-1.447-7.783-4.074-10.749a1.522 1.522 0 01.061-2.082l.2-.2c.296-.297.68-.461 1.121-.447.42.012.815.197 1.094.51a19.509 19.509 0 014.924 12.968 19.55 19.55 0 01-4.604 12.597z" fill="#F89C49"/><path d="M17.485 27.758a1.52 1.52 0 01-2.492 1.17l-8.318-6.892h-4.43a1.52 1.52 0 01-1.522-1.521v-6.062c0-.84.681-1.522 1.522-1.522h4.43l8.318-6.892a1.521 1.521 0 012.493 1.172v20.547zm5.848-2.378a1.52 1.52 0 01-1.185-.441l-.204-.205a1.52 1.52 0 01-.147-1.982 8.78 8.78 0 001.74-5.267 8.75 8.75 0 00-1.974-5.574 1.52 1.52 0 01.105-2.035l.203-.203a1.524 1.524 0 012.254.113 12.033 12.033 0 012.74 7.699c0 2.648-.838 5.17-2.423 7.289-.264.353-.67.575-1.11.606zm6.29 4.702a1.523 1.523 0 01-2.239.094l-.2-.2a1.522 1.522 0 01-.088-2.055A16.242 16.242 0 0030.9 17.485c0-3.966-1.447-7.783-4.074-10.749a1.522 1.522 0 01.061-2.082l.2-.2c.296-.297.68-.461 1.121-.447.42.012.815.197 1.094.51a19.509 19.509 0 014.924 12.968 19.55 19.55 0 01-4.604 12.597z" fill="#F89C49"/><path d="M23.333 25.384a1.52 1.52 0 01-1.185-.442l-.204-.204a1.52 1.52 0 01-.147-1.982 8.78 8.78 0 001.74-5.268 8.75 8.75 0 00-1.974-5.573 1.52 1.52 0 01.105-2.035l.203-.203a1.49 1.49 0 011.152-.444c.43.022.83.224 1.102.557a12.033 12.033 0 012.74 7.699 12.09 12.09 0 01-2.422 7.289c-.265.353-.67.575-1.11.606zm6.29 4.702a1.523 1.523 0 01-2.239.094l-.2-.2a1.522 1.522 0 01-.088-2.055A16.242 16.242 0 0030.9 17.488c0-3.965-1.447-7.782-4.074-10.748a1.522 1.522 0 01.061-2.082l.2-.2a1.48 1.48 0 011.122-.447c.418.011.814.197 1.093.51a19.508 19.508 0 014.924 12.967 19.55 19.55 0 01-4.604 12.598z" fill="#EF4537"/><path d="M23.333 25.384a1.52 1.52 0 01-1.185-.442l-.204-.204a1.52 1.52 0 01-.147-1.982 8.78 8.78 0 001.74-5.268 8.75 8.75 0 00-1.974-5.573 1.52 1.52 0 01.105-2.035l.203-.203a1.49 1.49 0 011.152-.444c.43.022.83.224 1.102.557a12.033 12.033 0 012.74 7.699 12.09 12.09 0 01-2.422 7.289c-.265.353-.67.575-1.11.606zm6.29 4.702a1.523 1.523 0 01-2.239.094l-.2-.2a1.522 1.522 0 01-.088-2.055A16.242 16.242 0 0030.9 17.488c0-3.965-1.447-7.782-4.074-10.748a1.522 1.522 0 01.061-2.082l.2-.2a1.48 1.48 0 011.122-.447c.418.011.814.197 1.093.51a19.508 19.508 0 014.924 12.967 19.55 19.55 0 01-4.604 12.598z" fill="#EF4537"/></g><defs><clipPath id="clip0"><path fill="#fff" transform="translate(.723 .562)" d="M0 0h33.504v33.504H0z"/></clipPath></defs></svg>