<svg width="21" height="17" fill="none" xmlns="http://www.w3.org/2000/svg"><path fill-rule="evenodd" clip-rule="evenodd" d="M20.864 2.352a8.93 8.93 0 01-2.439.625c.877-.492 1.55-1.273 1.868-2.2a8.918 8.918 0 01-2.698.965 4.372 4.372 0 00-3.1-1.258c-2.345 0-4.248 1.783-4.248 3.98 0 .313.038.617.11.908-3.529-.166-6.659-1.751-8.754-4.158a3.773 3.773 0 00-.574 2.001c0 1.38.75 2.6 1.889 3.313a4.46 4.46 0 01-1.924-.499v.052c0 1.928 1.464 3.536 3.407 3.902a4.63 4.63 0 01-1.918.069c.54 1.58 2.11 2.731 3.968 2.764a8.891 8.891 0 01-5.275 1.703 9.27 9.27 0 01-1.013-.056 12.623 12.623 0 006.51 1.789c7.813 0 12.084-6.066 12.084-11.325 0-.174-.005-.344-.012-.516a8.378 8.378 0 002.12-2.06z" fill="#fff"/></svg>