<svg height="512" viewBox="0 -53 384 384" width="512" xmlns="http://www.w3.org/2000/svg"><path fill="url(#paint0_linear)" d="M368 154.668H16c-8.832 0-16-7.168-16-16s7.168-16 16-16h352c8.832 0 16 7.168 16 16s-7.168 16-16 16zM368 32H16C7.168 32 0 24.832 0 16S7.168 0 16 0h352c8.832 0 16 7.168 16 16s-7.168 16-16 16zm0 245.332H16c-8.832 0-16-7.168-16-16s7.168-16 16-16h352c8.832 0 16 7.168 16 16s-7.168 16-16 16zm0 0"/><defs><linearGradient id="paint0_linear" x1="9.854" y1=".047" x2="9.854" y2="11.543" gradientUnits="userSpaceOnUse"><stop stop-color="#F89C49"/><stop offset="1" stop-color="#EF4537"/></linearGradient></defs></svg>