<svg width="17" height="11" fill="none" xmlns="http://www.w3.org/2000/svg"><path d="M8.906 5.983h0l-.005.004a.096.096 0 01-.05.014h-.004a.135.135 0 01-.05-.01L2.317.5h13.056l-6.17 5.236h0l-.277.235-.019.012zm2.81 1.279l3.726 3.078H2.206L5.91 7.265a1.423 1.423 0 011.829.01h.001c.31.26.705.397 1.11.397a1.72 1.72 0 001.11-.398h.001a1.367 1.367 0 011.755-.012zM8.95 5.955h0s.001 0 0 0zm-7.506-.557c0-1.364 1.597-2.104 2.638-1.222.76.644.754 1.818-.013 2.455-1.044.867-2.625.124-2.625-1.233zm12.15 1.258a1.598 1.598 0 01-.016-2.451c1.039-.881 2.633-.143 2.633 1.218 0 1.352-1.574 2.094-2.617 1.233z" stroke="url(#paint0_linear)"/><defs><linearGradient id="paint0_linear" x1=".944" y1="5.42" x2="16.71" y2="5.42" gradientUnits="userSpaceOnUse"><stop stop-color="#F89C49"/><stop offset="1" stop-color="#EE3C2E"/></linearGradient></defs></svg>