<svg width="29" height="40" fill="none" xmlns="http://www.w3.org/2000/svg"><path d="M3.726 24.474l-.01-.016-.012-.015c-2-2.7-2.898-6.347-2.67-9.966.229-3.619 1.576-7.097 3.924-9.474a13.374 13.374 0 0119.083 0c2.349 2.377 3.696 5.855 3.924 9.474.229 3.619-.67 7.267-2.669 9.966l-.011.015-.01.016-9.16 13.393a1.956 1.956 0 01-3.23 0l-9.16-13.393zm5.129-9.936c0 3.217 2.579 5.846 5.786 5.846 3.208 0 5.786-2.629 5.786-5.846s-2.578-5.846-5.786-5.846c-3.207 0-5.786 2.629-5.786 5.846z" stroke="url(#paint0_linear)" stroke-width="2"/><defs><linearGradient id="paint0_linear" x1="0" y1="21" x2="29" y2="21" gradientUnits="userSpaceOnUse"><stop stop-color="#F89C49"/><stop offset="1" stop-color="#EE3C2E"/></linearGradient></defs></svg>