<svg width="17" height="17" fill="none" xmlns="http://www.w3.org/2000/svg"><path d="M13.911 15.947l-.01.01-.01.01a.763.763 0 01-.24.17h0a1.156 1.156 0 01-.312.104 2.64 2.64 0 00-.094.008h-.004a1.804 1.804 0 01-.169.006c-.17 0-.481-.03-.952-.102-.42-.065-.957-.227-1.623-.503h0c-.648-.269-1.397-.678-2.25-1.235h0c-.83-.543-1.728-1.298-2.691-2.272h0l-.004-.005c-.766-.754-1.393-1.469-1.886-2.144-.502-.687-.9-1.315-1.197-1.884h0a9.995 9.995 0 01-.67-1.542 8.116 8.116 0 01-.299-1.18 3.69 3.69 0 01-.061-.721l.016-.316c.016-.093.048-.195.102-.308a.764.764 0 01.17-.24l.01-.009.009-.009 2.221-2.221c.074-.074.13-.09.186-.09.043 0 .066.01.089.027a.663.663 0 01.154.164l1.777 3.37v.001l.006.012c.038.067.052.14.031.241a.549.549 0 01-.15.288l-.819.818s0 0 0 0a.762.762 0 00-.177.301.896.896 0 00-.05.281v.047l.008.046c.056.295.177.607.346.933.15.3.373.649.658 1.042.3.414.715.877 1.236 1.387.51.522.976.94 1.395 1.244h0c.399.291.748.517 1.043.667.268.137.52.245.729.287l.208.041.048.01h.049c.11 0 .214-.033.264-.05h0c.08-.027.2-.076.302-.178l.002-.003.94-.955a.53.53 0 01.363-.133c.138 0 .19.025.197.03l.117.07h.018l3.103 1.832c.13.082.171.154.187.212.008.089-.015.157-.096.238 0 0 0 0 0 0l-2.22 2.203z" stroke="#fff" stroke-width=".985"/></svg>