<svg width="12" height="14" fill="none" xmlns="http://www.w3.org/2000/svg"><path d="M2.888 1.965a4.857 4.857 0 016.951 0c.853.867 1.348 2.142 1.432 3.477.084 1.336-.247 2.675-.974 3.66l-.006.008-.005.008-1.892 2.779a2.456 2.456 0 01-4.06 0L2.44 9.117l-.005-.007-.006-.007c-.727-.986-1.057-2.325-.973-3.66.083-1.336.578-2.611 1.43-3.478zm0 0l-.357-.35m.357.35l-.357-.35m0 0a5.357 5.357 0 017.665 0c1.907 1.938 2.122 5.59.503 7.784H2.028C.41 7.205.624 3.553 2.531 1.614zm1.596 3.843c0 1.273 1.017 2.319 2.29 2.319 1.272 0 2.288-1.046 2.288-2.32 0-1.272-1.016-2.319-2.289-2.319-1.272 0-2.289 1.047-2.289 2.32z" stroke="url(#paint0_linear)"/><defs><linearGradient id="paint0_linear" x1=".944" y1="7.883" x2="11.783" y2="7.883" gradientUnits="userSpaceOnUse"><stop stop-color="#F89C49"/><stop offset="1" stop-color="#EE3C2E"/></linearGradient></defs></svg>