<svg width="19" height="19" fill="none" xmlns="http://www.w3.org/2000/svg"><path d="M9.563 4.825a4.73 4.73 0 00-4.737 4.737A4.73 4.73 0 009.563 14.3 4.73 4.73 0 0014.3 9.562a4.73 4.73 0 00-4.737-4.737zm0 7.816a3.085 3.085 0 01-3.079-3.079 3.085 3.085 0 013.079-3.079 3.085 3.085 0 013.078 3.08 3.085 3.085 0 01-3.078 3.078zm4.93-9.114a1.105 1.105 0 100 2.213 1.104 1.104 0 001.023-1.53 1.104 1.104 0 00-1.022-.683zm4.303 6.035c0-1.275.012-2.538-.06-3.81-.071-1.479-.408-2.79-1.49-3.872C16.165.797 14.855.462 13.377.39 12.1.32 10.838.33 9.565.33 8.29.33 7.027.32 5.755.39 4.275.463 2.964.8 1.882 1.88.8 2.964.465 4.273.393 5.751.324 7.026.334 8.29.334 9.562c0 1.273-.01 2.538.06 3.81.072 1.479.41 2.79 1.49 3.872 1.084 1.083 2.393 1.418 3.871 1.49 1.275.071 2.538.06 3.811.06 1.275 0 2.538.011 3.81-.06 1.479-.072 2.79-.41 3.872-1.49 1.083-1.083 1.418-2.393 1.49-3.871.073-1.273.06-2.536.06-3.81zm-2.032 5.446c-.169.42-.372.735-.697 1.058a2.956 2.956 0 01-1.058.697c-1.215.483-4.1.374-5.446.374-1.347 0-4.234.11-5.449-.371a2.936 2.936 0 01-1.057-.698 2.956 2.956 0 01-.698-1.058c-.48-1.217-.372-4.101-.372-5.448 0-1.346-.108-4.233.372-5.448.169-.42.372-.735.698-1.058a2.985 2.985 0 011.057-.697c1.215-.48 4.102-.372 5.449-.372 1.346 0 4.233-.109 5.448.372.42.168.735.371 1.058.697.325.326.529.637.697 1.058.48 1.215.372 4.102.372 5.448 0 1.347.109 4.231-.374 5.446z" fill="#fff"/></svg>