<svg width="12" height="17" fill="none" xmlns="http://www.w3.org/2000/svg"><path d="M2.883 2.458a4.864 4.864 0 016.962 0c.854.868 1.35 2.145 1.433 3.482.084 1.337-.247 2.678-.975 3.665l-.006.007-.005.008-3.928 5.77-3.929-5.77-.005-.008-.006-.007c-.728-.987-1.059-2.328-.975-3.665.084-1.337.58-2.614 1.434-3.482zm0 0l-.352-.346m.352.346l-.352-.346m0 0a5.357 5.357 0 017.665 0c1.907 1.94 2.122 5.591.503 7.785H2.028C.41 7.703.624 4.051 2.531 2.112zm1.604 3.844c0 1.269 1.013 2.312 2.281 2.312 1.268 0 2.282-1.043 2.282-2.312 0-1.27-1.014-2.312-2.282-2.312S4.135 4.687 4.135 5.956z" stroke="#fff" stroke-width=".985"/></svg>