<svg width="21" height="19" fill="none" xmlns="http://www.w3.org/2000/svg"><path fill-rule="evenodd" clip-rule="evenodd" d="M18.61 18.248H1.832c-.804 0-1.455-.57-1.455-1.274V1.761c0-.702.651-1.273 1.455-1.273H18.61c.803 0 1.455.57 1.455 1.273v15.213c0 .704-.652 1.274-1.455 1.274zM3.79 15.323h2.898V7.304H3.79v8.019zM5.258 3.44c-.993 0-1.64.598-1.64 1.385 0 .769.629 1.386 1.601 1.386h.019c1.011 0 1.64-.617 1.64-1.386-.018-.787-.629-1.385-1.62-1.385zm11.883 7.285c0-2.463-1.43-3.61-3.338-3.61-1.539 0-2.227.778-2.612 1.325V7.304h-2.9c.04.753 0 8.018 0 8.018h2.9v-4.477c0-.239.019-.48.096-.65.208-.479.686-.974 1.487-.974 1.049 0 1.468.735 1.468 1.813v4.288h2.899v-4.597zm-5.97-2.257c.006-.01.014-.018.02-.027v.027h-.02z" fill="#2F80ED"/></svg>