<svg width="25" height="25" viewBox="0 0 25 25" fill="none" xmlns="http://www.w3.org/2000/svg">
<g clip-path="url(#clip0)">
<path d="M21.3141 24.2268H12.4454C12.184 24.2268 11.9334 24.123 11.7486 23.9382C11.5638 23.7534 11.46 23.5028 11.46 23.2414V21.2706C11.46 21.0092 11.5638 20.7586 11.7486 20.5738C11.9334 20.389 12.184 20.2852 12.4454 20.2852H21.3141C21.5755 20.2852 21.8261 20.389 22.0109 20.5738C22.1957 20.7586 22.2995 21.0092 22.2995 21.2706V23.2414C22.2995 23.5028 22.1957 23.7534 22.0109 23.9382C21.8261 24.123 21.5755 24.2268 21.3141 24.2268Z" fill="#F89C49" fill-opacity="0.5"/>
<path d="M21.3142 0.577148H3.57673C3.31538 0.577148 3.06473 0.680968 2.87993 0.86577C2.69513 1.05057 2.59131 1.30122 2.59131 1.56257V3.5334C2.59131 3.79475 2.69513 4.04539 2.87993 4.23019C3.06473 4.415 3.31538 4.51882 3.57673 4.51882H21.3142C21.5756 4.51882 21.8262 4.415 22.011 4.23019C22.1958 4.04539 22.2996 3.79475 22.2996 3.5334V1.56257C22.2996 1.30122 22.1958 1.05057 22.011 0.86577C21.8262 0.680968 21.5756 0.577148 21.3142 0.577148Z" fill="#EF4537"/>
<path d="M21.3142 6.48926H3.57673C3.31538 6.48926 3.06473 6.59308 2.87993 6.77788C2.69513 6.96268 2.59131 7.21333 2.59131 7.47467V17.3288C2.59131 17.5902 2.69513 17.8408 2.87993 18.0256C3.06473 18.2104 3.31538 18.3143 3.57673 18.3143H21.3142C21.5756 18.3143 21.8262 18.2104 22.011 18.0256C22.1958 17.8408 22.2996 17.5902 22.2996 17.3288V7.47467C22.2996 7.21333 22.1958 6.96268 22.011 6.77788C21.8262 6.59308 21.5756 6.48926 21.3142 6.48926Z" fill="#F89C49"/>
</g>
<defs>
<clipPath id="clip0">
<rect width="23.65" height="23.65" fill="white" transform="translate(0.620605 0.577148)"/>
</clipPath>
</defs>
</svg>
