<svg width="17" height="17" viewBox="0 0 17 17" fill="none" xmlns="http://www.w3.org/2000/svg">
<path d="M13.911 15.9473L13.9012 15.9571L13.8919 15.9674C13.8419 16.023 13.7662 16.0819 13.6516 16.1372L13.6514 16.1373C13.5369 16.1925 13.4331 16.2251 13.3388 16.2407C13.3065 16.2428 13.2718 16.2463 13.2453 16.249L13.2405 16.2494C13.2075 16.2527 13.1531 16.2554 13.0723 16.2554C12.9013 16.2554 12.591 16.2246 12.1196 16.1525C11.7008 16.0884 11.1626 15.9259 10.4969 15.6499L10.4968 15.6499C9.84891 15.3813 9.10001 14.9721 8.2478 14.415L8.2478 14.415C7.41649 13.8715 6.51914 13.1167 5.55602 12.1427L5.55605 12.1426L5.55154 12.1382C4.78643 11.384 4.15925 10.6692 3.66616 9.99391C3.16444 9.30674 2.76657 8.67908 2.46882 8.11018L2.46881 8.11016C2.16616 7.53194 1.94485 7.01832 1.79979 6.56761C1.64864 6.09797 1.55047 5.7063 1.50006 5.38867C1.44637 5.05045 1.43032 4.81512 1.43858 4.6665C1.4465 4.52393 1.4524 4.41377 1.45483 4.35097C1.4707 4.25794 1.50312 4.15569 1.55736 4.04333C1.61285 3.92839 1.67175 3.85275 1.72719 3.80286L1.73682 3.79419L1.74598 3.78503L3.96734 1.56367C4.04097 1.49004 4.09734 1.47415 4.15341 1.47415C4.19612 1.47415 4.21945 1.48402 4.24193 1.50088C4.29958 1.54412 4.35098 1.59785 4.39614 1.6654L6.17273 5.03593L6.17257 5.03602L6.17916 5.04774C6.2172 5.11536 6.23143 5.18731 6.20996 5.28925C6.18396 5.4128 6.13306 5.50353 6.05977 5.57682L5.24138 6.39521C5.24138 6.39521 5.24138 6.39521 5.24138 6.39521C5.14017 6.49642 5.09046 6.61668 5.06389 6.69637C5.03899 6.77107 5.01356 6.86951 5.01356 6.97744V7.02395L5.02226 7.06963C5.07843 7.36456 5.19932 7.67721 5.36785 8.00275C5.51831 8.30298 5.74082 8.6519 6.0259 9.04531C6.32585 9.45923 6.74098 9.92213 7.26228 10.4324C7.77278 10.954 8.23806 11.3713 8.6567 11.6764L8.65677 11.6765C9.05585 11.9672 9.4053 12.1929 9.69989 12.3433C9.96836 12.4804 10.2193 12.588 10.4288 12.6298L10.6372 12.6715L10.6851 12.6811H10.7339C10.8441 12.6811 10.9481 12.6475 10.9982 12.6308L10.9986 12.6307C11.0779 12.6042 11.1982 12.5545 11.2995 12.4532L11.3025 12.4502L12.2413 11.4949C12.3489 11.4032 12.4634 11.3616 12.6046 11.3616C12.7431 11.3616 12.7946 11.3872 12.802 11.3916L12.919 11.4619H12.9375L16.0401 13.2945C16.17 13.3758 16.2114 13.4479 16.2267 13.5061C16.2347 13.5949 16.2116 13.6633 16.1315 13.7436C16.1313 13.7438 16.1312 13.7439 16.131 13.7441L13.911 15.9473Z" stroke="white" stroke-width="0.985417"/>
</svg>
