<svg width="15" height="19" viewBox="0 0 15 19" fill="none" xmlns="http://www.w3.org/2000/svg">
<path fill-rule="evenodd" clip-rule="evenodd" d="M7.80742 0.498047C2.94439 0.498047 0.492676 3.96868 0.492676 6.86384C0.492676 8.61591 1.15882 10.1748 2.58866 10.7562C2.82319 10.8518 3.03308 10.7592 3.10107 10.501C3.14837 10.3227 3.26071 9.87133 3.30998 9.68312C3.37896 9.42789 3.35236 9.33822 3.16315 9.11552C2.75027 8.63168 2.48716 8.00495 2.48716 7.11709C2.48716 4.5422 4.42252 2.23731 7.52658 2.23731C10.2749 2.23731 11.7846 3.90956 11.7846 6.14153C11.7846 9.08004 10.4789 11.5593 8.53959 11.5593C7.46943 11.5593 6.66828 10.6774 6.92449 9.5964C7.23293 8.30649 7.82812 6.91311 7.82812 5.98091C7.82812 5.14724 7.37877 4.45154 6.44755 4.45154C5.35374 4.45154 4.47474 5.57886 4.47474 7.08851C4.47474 8.05127 4.80092 8.70164 4.80092 8.70164C4.80092 8.70164 3.6805 13.4257 3.4844 14.2535C3.09319 15.9011 3.42626 17.9212 3.45385 18.1262C3.4706 18.2464 3.6263 18.275 3.69725 18.1843C3.79776 18.0523 5.10147 16.451 5.54491 14.8497C5.67005 14.3964 6.26426 12.0491 6.26426 12.0491C6.62 12.7241 7.65961 13.3193 8.76426 13.3193C12.0546 13.3193 14.2865 10.3325 14.2865 6.33565C14.2865 3.31338 11.7156 0.498047 7.80742 0.498047Z" fill="#EB5757"/>
</svg>
