<svg width="25" height="24" viewBox="0 0 25 24" fill="none" xmlns="http://www.w3.org/2000/svg">
<path d="M9.48929 10.0689H2.59137C2.33002 10.0689 2.07938 9.96513 1.89458 9.78032C1.70978 9.59552 1.60596 9.34488 1.60596 9.08353V2.18561C1.60596 1.92426 1.70978 1.67362 1.89458 1.48882C2.07938 1.30401 2.33002 1.2002 2.59137 1.2002H9.48929C9.75064 1.2002 10.0013 1.30401 10.1861 1.48882C10.3709 1.67362 10.4747 1.92426 10.4747 2.18561V9.08353C10.4747 9.34488 10.3709 9.59552 10.1861 9.78032C10.0013 9.96513 9.75064 10.0689 9.48929 10.0689Z" fill="#F89C49"/>
<path d="M9.48929 22.8795H2.59137C2.33002 22.8795 2.07938 22.7757 1.89458 22.5909C1.70978 22.4061 1.60596 22.1554 1.60596 21.8941V14.9962C1.60596 14.7348 1.70978 14.4842 1.89458 14.2994C2.07938 14.1146 2.33002 14.0107 2.59137 14.0107H9.48929C9.75064 14.0107 10.0013 14.1146 10.1861 14.2994C10.3709 14.4842 10.4747 14.7348 10.4747 14.9962V21.8941C10.4747 22.1554 10.3709 22.4061 10.1861 22.5909C10.0013 22.7757 9.75064 22.8795 9.48929 22.8795Z" fill="#F89C49"/>
<path d="M13.4312 2.18555H23.2853V4.15638H13.4312V2.18555Z" fill="#EF4537"/>
<path d="M23.2853 14.9961H13.4312V16.9669H23.2853V14.9961Z" fill="#EF4537"/>
<path opacity="0.5" d="M23.2853 19.9229H13.4312V21.8937H23.2853V19.9229Z" fill="#F89C49"/>
<path opacity="0.5" d="M23.2853 7.1123H13.4312V9.08314H23.2853V7.1123Z" fill="#F89C49"/>
</svg>
