<svg width="21" height="17" viewBox="0 0 21 17" fill="none" xmlns="http://www.w3.org/2000/svg">
<path fill-rule="evenodd" clip-rule="evenodd" d="M20.8642 2.35174C20.1025 2.66904 19.2836 2.88091 18.4253 2.97748C19.3023 2.48477 19.9754 1.70432 20.2927 0.776058C19.4709 1.23132 18.5623 1.56242 17.5946 1.74177C16.8211 0.967229 15.7164 0.484375 14.4955 0.484375C12.1502 0.484375 10.2474 2.26699 10.2474 4.46447C10.2474 4.77685 10.2848 5.08134 10.3577 5.37204C6.82796 5.20551 3.69827 3.62096 1.60328 1.21358C1.23769 1.80188 1.02878 2.48477 1.02878 3.21496C1.02878 4.59455 1.77868 5.81449 2.91782 6.52794C2.22212 6.50626 1.5678 6.3279 0.994289 6.02931C0.994289 6.04705 0.994289 6.06183 0.994289 6.08056C0.994289 8.00902 2.45763 9.61722 4.40088 9.98281C4.04514 10.0735 3.66871 10.1208 3.28243 10.1208C3.00848 10.1208 2.74242 10.0971 2.48325 10.0518C3.02326 11.6314 4.59205 12.7834 6.45054 12.8159C4.99705 13.8831 3.16615 14.5187 1.17561 14.5187C0.832681 14.5187 0.494683 14.5 0.162598 14.4635C2.04179 15.5918 4.27474 16.252 6.67325 16.252C14.4856 16.252 18.7574 10.1858 18.7574 4.92663C18.7574 4.7532 18.7525 4.58272 18.7446 4.41126C19.5743 3.84957 20.2947 3.14894 20.8642 2.35174Z" fill="white"/>
</svg>
