<svg width="17" height="16" viewBox="0 0 17 16" fill="none" xmlns="http://www.w3.org/2000/svg">
<mask id="path-1-inside-1" fill="white">
<path d="M16.7133 12.4429C16.7467 12.6991 16.6687 12.9218 16.4795 13.111L14.2581 15.3156C14.1579 15.4269 14.0271 15.5217 13.8656 15.5995C13.7383 15.661 13.6126 15.7052 13.4888 15.732C13.4233 15.7462 13.3561 15.7516 13.2894 15.7583C13.2338 15.7638 13.1614 15.7667 13.0723 15.7667C12.8607 15.7667 12.5183 15.7305 12.0451 15.6581C11.5719 15.5857 10.9929 15.4075 10.3082 15.1236C9.62327 14.8397 8.84666 14.4137 7.97818 13.8459C7.10971 13.2781 6.18551 12.4986 5.20566 11.5076C4.42623 10.7393 3.78042 10.0045 3.26823 9.303C2.75604 8.6015 2.34406 7.9529 2.03229 7.3572C1.72049 6.7615 1.48666 6.22147 1.33078 5.73711C1.17489 5.25276 1.06911 4.83521 1.01344 4.48447C0.957766 4.13373 0.935497 3.85815 0.946631 3.65772C0.949194 3.61159 0.951462 3.57017 0.953436 3.53348C0.960946 3.39379 0.968793 3.25284 1.00821 3.11863C1.03447 3.0292 1.06962 2.93888 1.11365 2.84768C1.19159 2.68623 1.28624 2.5554 1.39758 2.45518L3.61894 0.233827C3.77483 0.0779424 3.95298 0 4.15341 0C4.29816 0 4.42621 0.0417548 4.53755 0.125264C4.6489 0.208774 4.74354 0.311769 4.82149 0.43425L6.60859 3.82474C6.70881 4.0029 6.73664 4.19775 6.6921 4.40931C6.64757 4.62087 6.55292 4.79902 6.40817 4.94377L5.58978 5.76217C5.56751 5.78444 5.54802 5.82062 5.53132 5.87073C5.50434 5.95167 5.51306 6.03847 5.53456 6.12104C5.58735 6.32379 5.67813 6.54934 5.8069 6.79769C5.94052 7.06492 6.14651 7.39061 6.42487 7.77475C6.70324 8.15889 7.09852 8.60147 7.61071 9.10253C8.11177 9.61477 8.55716 10.0128 8.94687 10.2968C9.3365 10.5806 9.6623 10.7894 9.92396 10.9231C10.1856 11.0567 10.386 11.1374 10.5252 11.1652L10.6243 11.185C10.6972 11.1996 10.772 11.2054 10.8425 11.1819C10.8926 11.1652 10.9288 11.1457 10.9511 11.1234L11.9031 10.1547C12.1036 9.97657 12.3373 9.88749 12.6046 9.88749C12.7899 9.88749 12.9377 9.91945 13.0483 9.98344C13.0531 9.9862 13.0584 9.9877 13.0639 9.9877C13.0693 9.9877 13.0747 9.98916 13.0793 9.99191L16.2956 11.8917C16.5296 12.0366 16.6687 12.2202 16.7133 12.4429Z"/>
</mask>
<path d="M16.7133 12.4429L17.7049 12.3135L17.7005 12.2799L17.6938 12.2467L16.7133 12.4429ZM16.4795 13.111L17.1839 13.8208L17.1867 13.818L16.4795 13.111ZM14.2581 15.3156L13.5537 14.6058L13.5337 14.6257L13.5148 14.6466L14.2581 15.3156ZM13.8656 15.5995L13.4312 14.6988L13.4307 14.699L13.8656 15.5995ZM10.3082 15.1236L10.6911 14.1998L10.6911 14.1998L10.3082 15.1236ZM7.97818 13.8459L8.52541 13.0089L8.52539 13.0089L7.97818 13.8459ZM5.20566 11.5076L5.91682 10.8045L5.90766 10.7955L5.20566 11.5076ZM3.26823 9.303L2.46059 9.89268L2.46062 9.89272L3.26823 9.303ZM2.03229 7.3572L2.91828 6.8935L2.91826 6.89347L2.03229 7.3572ZM0.946631 3.65772L-0.051829 3.60225L0.946631 3.65772ZM1.11365 2.84768L0.213099 2.41293L1.11365 2.84768ZM1.39758 2.45518L2.06655 3.19848L2.0861 3.18089L2.10469 3.16229L1.39758 2.45518ZM3.61894 0.233827L4.32605 0.940934V0.940934L3.61894 0.233827ZM4.82149 0.43425L5.70612 -0.0320354L5.68707 -0.0681673L5.66515 -0.102626L4.82149 0.43425ZM6.60859 3.82474L5.72396 4.29103L5.73033 4.30311L5.73702 4.315L6.60859 3.82474ZM6.40817 4.94377L5.70106 4.23666V4.23667L6.40817 4.94377ZM5.58978 5.76217L6.29688 6.46927V6.46927L5.58978 5.76217ZM5.8069 6.79769L6.70133 6.35047L6.69804 6.3439L6.69465 6.33737L5.8069 6.79769ZM7.61071 9.10253L8.32558 8.40327L8.31788 8.3954L8.31001 8.38769L7.61071 9.10253ZM8.94687 10.2968L8.35794 11.105L8.35808 11.1051L8.94687 10.2968ZM10.5252 11.1652L10.7215 10.1846L10.7208 10.1845L10.5252 11.1652ZM10.9511 11.1234L11.6582 11.8305L11.6643 11.8243L10.9511 11.1234ZM11.9031 10.1547L11.239 9.40705L11.2136 9.42958L11.1898 9.45377L11.9031 10.1547ZM16.2956 11.8917L16.8222 11.0416L16.8132 11.036L16.8042 11.0307L16.2956 11.8917ZM13.0793 9.99191L13.5879 9.1309L13.0793 9.99191ZM13.0483 9.98344L13.5492 9.11791L13.0483 9.98344ZM10.6243 11.185L10.428 12.1655L10.6243 11.185ZM5.53456 6.12104L4.56682 6.373L5.53456 6.12104ZM13.4888 15.732L13.7005 16.7094L13.4888 15.732ZM15.7217 12.5724C15.7201 12.5603 15.7187 12.5212 15.736 12.4716C15.753 12.4232 15.7751 12.4012 15.7722 12.404L17.1867 13.818C17.5858 13.4188 17.7802 12.8907 17.7049 12.3135L15.7217 12.5724ZM15.775 12.4012L13.5537 14.6058L14.9625 16.0254L17.1839 13.8208L15.775 12.4012ZM13.5148 14.6466C13.5165 14.6447 13.4977 14.6668 13.4312 14.6988L14.3 16.5003C14.5565 16.3766 14.7992 16.2092 15.0014 15.9846L13.5148 14.6466ZM13.4307 14.699C13.3664 14.7301 13.3155 14.7464 13.2771 14.7547L13.7005 16.7094C13.9098 16.664 14.1101 16.592 14.3005 16.5L13.4307 14.699ZM13.1902 14.7632C13.1805 14.7642 13.1445 14.7667 13.0723 14.7667V16.7667C13.1783 16.7667 13.2871 16.7635 13.3885 16.7533L13.1902 14.7632ZM13.0723 14.7667C12.9431 14.7667 12.6659 14.7414 12.1963 14.6696L11.8938 16.6466C12.3707 16.7195 12.7784 16.7667 13.0723 16.7667V14.7667ZM12.1963 14.6696C11.8336 14.6141 11.3374 14.4678 10.6911 14.1998L9.92518 16.0474C10.6484 16.3472 11.3101 16.5573 11.8938 16.6466L12.1963 14.6696ZM10.6911 14.1998C10.0812 13.947 9.36087 13.5551 8.52541 13.0089L7.43096 14.6829C8.33244 15.2723 9.16531 15.7323 9.9252 16.0474L10.6911 14.1998ZM8.52539 13.0089C7.73235 12.4904 6.86265 11.7612 5.91676 10.8045L4.49456 12.2107C5.50837 13.2361 6.48707 14.0658 7.43098 14.6829L8.52539 13.0089ZM5.90766 10.7955C5.15729 10.0558 4.54926 9.36164 4.07585 8.71329L2.46062 9.89272C3.01159 10.6473 3.69518 11.4229 4.50366 12.2198L5.90766 10.7955ZM4.07587 8.71332C3.58493 8.04093 3.20158 7.43482 2.91828 6.8935L1.14629 7.8209C1.48653 8.47099 1.92715 9.16207 2.46059 9.89268L4.07587 8.71332ZM2.91826 6.89347C2.62503 6.33324 2.4166 5.84682 2.28269 5.43075L0.378862 6.04348C0.556723 6.59612 0.815948 7.18976 1.14631 7.82093L2.91826 6.89347ZM2.28269 5.43075C2.13641 4.97625 2.04608 4.61123 2.00107 4.3277L0.0258036 4.64124C0.0921462 5.05919 0.213368 5.52927 0.378862 6.04348L2.28269 5.43075ZM2.00107 4.3277C1.94944 4.00237 1.9398 3.80848 1.94509 3.71319L-0.051829 3.60225C-0.0688046 3.90781 -0.0339032 4.26508 0.0258036 4.64124L2.00107 4.3277ZM1.94509 3.71319C1.94768 3.66661 1.94998 3.62458 1.95199 3.58717L-0.045122 3.47979C-0.0470564 3.51576 -0.049291 3.55657 -0.051829 3.60225L1.94509 3.71319ZM1.96769 3.40041C1.97727 3.36779 1.99194 3.32854 2.0142 3.28243L0.213099 2.41293C0.147301 2.54923 0.0916805 2.69061 0.0487341 2.83684L1.96769 3.40041ZM2.0142 3.28243C2.04658 3.21537 2.06868 3.19656 2.06655 3.19848L0.72862 1.71189C0.503795 1.91423 0.336611 2.15708 0.213099 2.41293L2.0142 3.28243ZM2.10469 3.16229L4.32605 0.940934L2.91184 -0.47328L0.690478 1.74808L2.10469 3.16229ZM4.32605 0.940934C4.32752 0.939464 4.30969 0.957379 4.27029 0.974614C4.22906 0.992652 4.18682 1 4.15341 1V-1C3.66 -1 3.23467 -0.796109 2.91184 -0.47328L4.32605 0.940934ZM4.15341 1C4.12836 1 4.09128 0.996164 4.04799 0.982046C4.00427 0.967791 3.96665 0.947091 3.93755 0.925265L5.13755 -0.674736C4.84583 -0.893525 4.50525 -1 4.15341 -1V1ZM3.93755 0.925265C3.94836 0.933373 3.96176 0.945879 3.97782 0.971126L5.66515 -0.102626C5.52533 -0.32234 5.34943 -0.515825 5.13755 -0.674736L3.93755 0.925265ZM3.93685 0.900536L5.72396 4.29103L7.49323 3.35846L5.70612 -0.0320354L3.93685 0.900536ZM5.73702 4.315C5.72878 4.30035 5.71895 4.2758 5.71468 4.24592C5.71054 4.21693 5.71413 4.20056 5.71355 4.2033L7.67065 4.61532C7.76203 4.18129 7.70658 3.73698 7.48017 3.33448L5.73702 4.315ZM5.71355 4.2033C5.70922 4.22388 5.7049 4.23188 5.7046 4.23244C5.70426 4.23308 5.70412 4.23326 5.70403 4.23339C5.70392 4.23353 5.70313 4.2346 5.70106 4.23666L7.11528 5.65088C7.40507 5.36109 7.58851 5.00551 7.67065 4.61532L5.71355 4.2033ZM5.70106 4.23667L4.88267 5.05506L6.29688 6.46927L7.11528 5.65088L5.70106 4.23667ZM4.88267 5.05506C4.70019 5.23754 4.61935 5.44435 4.58263 5.5545L6.48 6.18696C6.47503 6.20187 6.46282 6.23574 6.43893 6.28011C6.41576 6.32315 6.37184 6.39431 6.29688 6.46927L4.88267 5.05506ZM4.56682 6.373C4.64347 6.6674 4.76669 6.96399 4.91915 7.258L6.69465 6.33737C6.58957 6.1347 6.53123 5.98019 6.5023 5.86908L4.56682 6.373ZM4.91247 7.2449C5.08033 7.58061 5.32103 7.95568 5.61512 8.36153L7.23462 7.18797C6.97198 6.82553 6.8007 6.54923 6.70133 6.35047L4.91247 7.2449ZM5.61512 8.36153C5.9388 8.8082 6.37705 9.29461 6.91142 9.81736L8.31001 8.38769C7.81998 7.90832 7.46767 7.50959 7.23462 7.18797L5.61512 8.36153ZM6.89584 9.80178C7.41908 10.3367 7.90742 10.7767 8.35794 11.105L9.5358 9.48859C9.2069 9.24891 8.80446 8.89284 8.32558 8.40327L6.89584 9.80178ZM8.35808 11.1051C8.76689 11.4029 9.14069 11.6459 9.46918 11.8137L10.3787 10.0325C10.1839 9.93297 9.9061 9.75833 9.53566 9.48848L8.35808 11.1051ZM9.46918 11.8137C9.74467 11.9543 10.0477 12.0896 10.3296 12.1458L10.7208 10.1845C10.7348 10.1873 10.7132 10.1841 10.6441 10.1562C10.5793 10.1301 10.4918 10.0902 10.3787 10.0325L9.46918 11.8137ZM10.3289 12.1457L10.428 12.1655L10.8206 10.2044L10.7215 10.1846L10.3289 12.1457ZM11.1592 12.1304C11.2686 12.0939 11.4756 12.0131 11.6582 11.8305L10.244 10.4163C10.319 10.3413 10.3902 10.2974 10.4332 10.2742C10.4775 10.2504 10.5112 10.2382 10.5258 10.2334L11.1592 12.1304ZM11.6643 11.8243L12.6163 10.8556L11.1898 9.45377L10.2379 10.4225L11.6643 11.8243ZM12.5672 10.9023C12.576 10.8945 12.5816 10.8908 12.5837 10.8895C12.5858 10.8883 12.586 10.8883 12.5848 10.8888C12.5837 10.8892 12.5836 10.8891 12.5855 10.8888C12.5875 10.8884 12.5935 10.8875 12.6046 10.8875V8.88749C12.0914 8.88749 11.6216 9.06715 11.239 9.40705L12.5672 10.9023ZM12.6046 10.8875C12.6414 10.8875 12.6521 10.8908 12.6431 10.8889C12.6335 10.8868 12.5971 10.8777 12.5474 10.849L13.5492 9.11791C13.2328 8.93487 12.8914 8.88749 12.6046 8.88749V10.8875ZM12.5707 10.8529L15.7871 12.7527L16.8042 11.0307L13.5879 9.1309L12.5707 10.8529ZM15.7691 12.7419C15.8013 12.7618 15.7959 12.7652 15.7784 12.742C15.7696 12.7305 15.7597 12.7147 15.7509 12.6952C15.7421 12.6757 15.7362 12.6564 15.7327 12.6392L17.6938 12.2467C17.5837 11.6963 17.2377 11.2989 16.8222 11.0416L15.7691 12.7419ZM13.0639 10.9877C12.8904 10.9877 12.7201 10.9412 12.5707 10.8529L13.5879 9.1309C13.4292 9.03715 13.2482 8.9877 13.0639 8.9877V10.9877ZM12.5474 10.849C12.6976 10.9358 12.8748 10.9877 13.0639 10.9877V8.9877C13.2421 8.9877 13.4086 9.03655 13.5492 9.11791L12.5474 10.849ZM10.428 12.1655C10.5624 12.1924 10.8423 12.236 11.1586 12.1306L10.5264 10.2332C10.6166 10.2031 10.6936 10.1973 10.7435 10.1978C10.7909 10.1982 10.8204 10.2044 10.8206 10.2044L10.428 12.1655ZM4.58263 5.5545C4.46768 5.89938 4.52354 6.20677 4.56682 6.373L6.5023 5.86908C6.50258 5.87017 6.541 6.00396 6.48 6.18696L4.58263 5.5545ZM1.95199 3.58717C1.95596 3.51332 1.95853 3.47183 1.96257 3.43596C1.96626 3.40322 1.96927 3.39504 1.96769 3.40041L0.0487341 2.83684C-0.0288636 3.10106 -0.0386188 3.35884 -0.045122 3.47979L1.95199 3.58717ZM13.2771 14.7547C13.2866 14.7526 13.2875 14.7531 13.2717 14.7549C13.264 14.7559 13.2543 14.7569 13.2403 14.7583C13.2333 14.759 13.2261 14.7597 13.2175 14.7605C13.2093 14.7613 13.1997 14.7623 13.1899 14.7632L13.3888 16.7533C13.4252 16.7497 13.5647 16.7388 13.7005 16.7094L13.2771 14.7547Z" fill="url(#paint0_linear)" mask="url(#path-1-inside-1)"/>
<defs>
<linearGradient id="paint0_linear" x1="0.943848" y1="7.88333" x2="16.7208" y2="7.88333" gradientUnits="userSpaceOnUse">
<stop stop-color="#F89C49"/>
<stop offset="1" stop-color="#EE3C2E"/>
</linearGradient>
</defs>
</svg>
