<svg width="12" height="14" viewBox="0 0 12 14" fill="none" xmlns="http://www.w3.org/2000/svg">
<path d="M2.88775 1.96473C4.80856 0.0117422 7.91903 0.0117785 9.8395 1.96471C10.692 2.83165 11.1869 4.10692 11.2707 5.44242C11.3546 6.77776 11.0238 8.11704 10.2969 9.10251L10.2913 9.11009L10.286 9.11788L8.39391 11.8966C7.41901 13.3284 5.30827 13.3284 4.33337 11.8966L2.44125 9.11788L2.43595 9.11009L2.43035 9.10251C1.7035 8.11704 1.37272 6.77776 1.45656 5.44242C1.5404 4.10692 2.03522 2.83167 2.88775 1.96473ZM2.88775 1.96473L2.53127 1.61413M2.88775 1.96473L2.53127 1.61413M2.53127 1.61413C4.64797 -0.538043 8.0796 -0.538043 10.196 1.61413C12.1031 3.55345 12.3178 7.20498 10.6993 9.3993H2.02796C0.409503 7.20498 0.624185 3.55345 2.53127 1.61413ZM4.1274 5.45759C4.1274 6.73063 5.14427 7.77684 6.41642 7.77684C7.68856 7.77684 8.70543 6.73063 8.70543 5.45759C8.70543 4.18455 7.68856 3.13834 6.41642 3.13834C5.14427 3.13834 4.1274 4.18455 4.1274 5.45759Z" stroke="url(#paint0_linear)"/>
<defs>
<linearGradient id="paint0_linear" x1="0.943848" y1="7.88333" x2="11.7834" y2="7.88333" gradientUnits="userSpaceOnUse">
<stop stop-color="#F89C49"/>
<stop offset="1" stop-color="#EE3C2E"/>
</linearGradient>
</defs>
</svg>
