<svg width="25" height="25" viewBox="0 0 25 25" fill="none" xmlns="http://www.w3.org/2000/svg">
<g clip-path="url(#clip0)">
<path d="M18.3877 10.7063H24.3002L21.3439 6.76465L18.3877 10.7063ZM18.3877 14.648H24.3002L21.3439 18.5896L18.3877 14.648Z" fill="#F89C49" fill-opacity="0.5"/>
<path d="M1.63532 0.852539H7.54782V24.5025H1.63532C1.37397 24.5025 1.12332 24.3987 0.938523 24.2139C0.753722 24.0291 0.649902 23.7785 0.649902 23.5171V1.83796C0.649902 1.57661 0.753722 1.32596 0.938523 1.14116C1.12332 0.956359 1.37397 0.852539 1.63532 0.852539Z" fill="#F89C49"/>
<path d="M9.51855 0.852539H15.4311C15.6924 0.852539 15.943 0.956359 16.1279 1.14116C16.3127 1.32596 16.4165 1.57661 16.4165 1.83796V23.5171C16.4165 23.7785 16.3127 24.0291 16.1279 24.2139C15.943 24.3987 15.6924 24.5025 15.4311 24.5025H9.51855V0.852539Z" fill="#EF4537"/>
</g>
<defs>
<clipPath id="clip0">
<rect width="23.65" height="23.65" fill="white" transform="translate(0.649902 0.852539)"/>
</clipPath>
</defs>
</svg>
