<svg width="13" height="24" viewBox="0 0 13 24" fill="none" xmlns="http://www.w3.org/2000/svg">
<path d="M1.17067 13.8988H3.54856V22.6927C3.54856 23.0836 3.86492 23.4009 4.25683 23.4009L8.04087 23.4019C8.43278 23.4019 8.74914 23.0836 8.74914 22.6936V13.8998H11.0033C11.3603 13.8998 11.6615 13.6335 11.7059 13.2793L12.1762 9.50189C12.2291 9.0807 11.8995 8.70579 11.4736 8.70579H8.74914C8.85585 6.37229 8.33835 5.68196 9.85593 5.68196C10.8834 5.5592 12.5039 6.07954 12.5039 4.97369V1.59573C12.5039 1.24159 12.2423 0.94223 11.892 0.894068C11.5954 0.853461 10.4235 0.737305 8.97012 0.737305C2.35017 0.737305 3.71288 8.07685 3.54951 8.70485H1.17067C0.779706 8.70485 0.462402 9.02215 0.462402 9.41312V13.1905C0.462402 13.5815 0.779706 13.8988 1.17067 13.8988ZM1.87894 10.1223H4.25683C4.6478 10.1223 4.9651 9.80503 4.9651 9.41406V6.43839C4.9651 3.71581 6.42413 2.15479 8.96917 2.15479C9.79832 2.15479 10.5614 2.19539 11.0864 2.23694V4.26637C10.7068 4.45996 7.33166 3.43156 7.33166 6.8133V9.41501C7.33166 9.80597 7.64896 10.1233 8.03993 10.1233H10.6709L10.3763 12.4842H8.03993C7.64896 12.4842 7.33166 12.8015 7.33166 13.1924V21.9854H4.96604V13.1915C4.96604 12.8005 4.64874 12.4832 4.25778 12.4832H1.87894V10.1223Z" fill="white"/>
</svg>
