<svg width="20" height="19" viewBox="0 0 20 19" fill="none" xmlns="http://www.w3.org/2000/svg">
<path fill-rule="evenodd" clip-rule="evenodd" d="M18.5007 18.2484H1.72499C0.920892 18.2484 0.269531 17.6779 0.269531 16.9743V1.76144C0.269531 1.05884 0.920892 0.488281 1.72499 0.488281H18.5007C19.3038 0.488281 19.9552 1.05884 19.9552 1.76144V16.9743C19.9552 17.6779 19.3038 18.2484 18.5007 18.2484ZM3.68083 15.3228H6.57992V7.30448H3.68083V15.3228ZM5.15023 3.4398C4.15792 3.4398 3.5105 4.03794 3.5105 4.82529C3.5105 5.59392 4.13919 6.21079 5.1118 6.21079H5.13052C6.14156 6.21079 6.77026 5.59392 6.77026 4.82529C6.75252 4.03794 6.14156 3.4398 5.15023 3.4398ZM17.0335 10.7254C17.0335 8.2619 15.6027 7.11586 13.6959 7.11586C12.1567 7.11586 11.4689 7.89336 11.0836 8.44026V7.30408H8.18449C8.22292 8.05694 8.18449 15.3224 8.18449 15.3224H11.0836V10.8447C11.0836 10.6062 11.1023 10.3658 11.1792 10.1953C11.3881 9.71638 11.866 9.22071 12.6662 9.22071C13.7156 9.22071 14.1344 9.95583 14.1344 11.0339V15.3224H17.0335V10.7254ZM11.0638 8.46759C11.0697 8.45872 11.0775 8.44985 11.0835 8.44098V8.46759H11.0638Z" fill="white"/>
</svg>
