<svg width="17" height="11" viewBox="0 0 17 11" fill="none" xmlns="http://www.w3.org/2000/svg">
<path d="M8.90628 5.98349L8.90626 5.98345L8.90086 5.98711C8.89166 5.99336 8.87272 6.00076 8.85034 6.00076H8.84697C8.82918 6.00076 8.81448 5.99779 8.80453 5.9944C8.80064 5.99308 8.79817 5.99195 8.79692 5.99131L2.31626 0.5H15.3735L9.20186 5.73574L9.20138 5.73615L8.92548 5.97081L8.90628 5.98349ZM11.7155 7.26158L15.4418 10.3396H2.2065L5.90886 7.26536C6.44005 6.82429 7.21123 6.82826 7.73785 7.27477L7.73922 7.27592C8.04813 7.53594 8.44361 7.67191 8.84921 7.67191C9.25473 7.67191 9.6504 7.53471 9.9593 7.27416L9.96043 7.27321C10.4654 6.84472 11.2049 6.83982 11.7155 7.26158ZM8.94979 5.95506L8.94914 5.95548C8.95031 5.95473 8.95095 5.95433 8.94979 5.95506ZM1.44385 5.39823C1.44385 4.03376 3.04064 3.29386 4.08163 4.17597C4.8417 4.82002 4.83588 5.99423 4.06946 6.63072C3.02549 7.4977 1.44385 6.75526 1.44385 5.39823ZM13.5942 6.65565C12.8269 6.02178 12.8193 4.84838 13.5782 4.20456C14.6166 3.32367 16.2105 4.06171 16.2105 5.42341C16.2105 6.77536 14.6365 7.5167 13.5942 6.65565Z" stroke="url(#paint0_linear)"/>
<defs>
<linearGradient id="paint0_linear" x1="0.943848" y1="5.41979" x2="16.7105" y2="5.41979" gradientUnits="userSpaceOnUse">
<stop stop-color="#F89C49"/>
<stop offset="1" stop-color="#EE3C2E"/>
</linearGradient>
</defs>
</svg>
