<svg width="21" height="17" viewBox="0 0 21 17" fill="none" xmlns="http://www.w3.org/2000/svg">
<path fill-rule="evenodd" clip-rule="evenodd" d="M20.9726 2.35174C20.2109 2.66904 19.392 2.88091 18.5337 2.97748C19.4107 2.48477 20.0838 1.70432 20.4011 0.776058C19.5793 1.23132 18.6707 1.56242 17.703 1.74177C16.9295 0.967229 15.8248 0.484375 14.6039 0.484375C12.2586 0.484375 10.3558 2.26699 10.3558 4.46447C10.3558 4.77685 10.3932 5.08134 10.4661 5.37204C6.93635 5.20551 3.80667 3.62096 1.71168 1.21358C1.34609 1.80188 1.13718 2.48477 1.13718 3.21496C1.13718 4.59455 1.88708 5.81449 3.02622 6.52794C2.33052 6.50626 1.6762 6.3279 1.10269 6.02931C1.10269 6.04705 1.10269 6.06183 1.10269 6.08056C1.10269 8.00902 2.56603 9.61722 4.50927 9.98281C4.15354 10.0735 3.77711 10.1208 3.39083 10.1208C3.11688 10.1208 2.85082 10.0971 2.59165 10.0518C3.13166 11.6314 4.70044 12.7834 6.55894 12.8159C5.10545 13.8831 3.27455 14.5187 1.284 14.5187C0.941079 14.5187 0.603082 14.5 0.270996 14.4635C2.15019 15.5918 4.38314 16.252 6.78164 16.252C14.594 16.252 18.8658 10.1858 18.8658 4.92663C18.8658 4.7532 18.8609 4.58272 18.853 4.41126C19.6827 3.84957 20.4031 3.14894 20.9726 2.35174Z" fill="#14FFFF"/>
</svg>
