<svg width="29" height="40" viewBox="0 0 29 40" fill="none" xmlns="http://www.w3.org/2000/svg">
<path d="M3.72586 24.4738L3.71521 24.4582L3.70397 24.4431C1.70457 21.7439 0.806481 18.0959 1.03464 14.4772C1.26282 10.8583 2.61002 7.38035 4.95841 5.00254C10.2299 -0.334207 18.7709 -0.334134 24.0415 5.00249C26.39 7.3803 27.7372 10.8583 27.9654 14.4772C28.1935 18.0959 27.2954 21.7439 25.296 24.4431L25.2848 24.4582L25.2741 24.4738L16.1148 37.8673C15.3379 39.0032 13.6621 39.0032 12.8852 37.8673L3.72586 24.4738ZM8.8549 14.5382C8.8549 17.7554 11.4336 20.3844 14.6412 20.3844C17.8488 20.3844 20.4275 17.7554 20.4275 14.5382C20.4275 11.321 17.8488 8.692 14.6412 8.692C11.4336 8.692 8.8549 11.321 8.8549 14.5382Z" stroke="url(#paint0_linear)" stroke-width="2"/>
<defs>
<linearGradient id="paint0_linear" x1="0" y1="21" x2="29" y2="21" gradientUnits="userSpaceOnUse">
<stop stop-color="#F89C49"/>
<stop offset="1" stop-color="#EE3C2E"/>
</linearGradient>
</defs>
</svg>
