<svg width="19" height="12" viewBox="0 0 19 12" fill="none" xmlns="http://www.w3.org/2000/svg">
<path d="M12.5585 1.44872C12.2378 1.12803 12.2378 0.608084 12.5585 0.287393C12.8792 -0.0332978 13.3992 -0.0332978 13.7199 0.287393L18.6469 5.21448C18.9676 5.53517 18.9676 6.05511 18.6469 6.3758L13.7199 11.3029C13.3992 11.6236 12.8792 11.6236 12.5585 11.3029C12.2378 10.9822 12.2378 10.4623 12.5585 10.1416L16.0838 6.61631H1.65153C1.193 6.61631 0.821289 6.24865 0.821289 5.79513C0.821289 5.3416 1.193 4.97395 1.65153 4.97395H16.0838L12.5585 1.44872Z" fill="url(#paint0_linear)"/>
<defs>
<linearGradient id="paint0_linear" x1="9.85437" y1="0.046875" x2="9.85437" y2="11.5434" gradientUnits="userSpaceOnUse">
<stop stop-color="#F89C49"/>
<stop offset="1" stop-color="#EF4537"/>
</linearGradient>
</defs>
</svg>
