<svg width="12" height="17" viewBox="0 0 12 17" fill="none" xmlns="http://www.w3.org/2000/svg">
<path d="M2.88255 2.45767C4.80621 0.501771 7.92137 0.501807 9.8447 2.45764C10.6987 3.32608 11.1941 4.60313 11.278 5.94001C11.3619 7.27672 11.0308 8.61779 10.3028 9.60488L10.2973 9.61236L10.2921 9.62003L6.36364 15.3893L2.43522 9.62003L2.43 9.61236L2.42448 9.60488C1.69643 8.61779 1.36536 7.27672 1.44928 5.94001C1.53321 4.60313 2.02855 3.3261 2.88255 2.45767ZM2.88255 2.45767L2.53127 2.11217M2.88255 2.45767L2.53127 2.11217M2.53127 2.11217C4.64797 -0.0399957 8.0796 -0.0399957 10.196 2.11217C12.1031 4.05149 12.3178 7.70303 10.6993 9.89734H2.02796C0.409503 7.70303 0.624185 4.05149 2.53127 2.11217ZM4.13469 5.95564C4.13469 7.22477 5.14842 8.2676 6.41642 8.2676C7.68441 8.2676 8.69814 7.22477 8.69814 5.95564C8.69814 4.68651 7.68441 3.64368 6.41642 3.64368C5.14842 3.64368 4.13469 4.68651 4.13469 5.95564Z" stroke="white" stroke-width="0.985417"/>
</svg>
