<svg width="21" height="21" viewBox="0 0 21 21" fill="none" xmlns="http://www.w3.org/2000/svg">
<path fill-rule="evenodd" clip-rule="evenodd" d="M17.5453 3.57247C16.6362 2.66177 15.5546 1.93966 14.3631 1.44797C13.1717 0.956277 11.894 0.704777 10.6042 0.708039C5.1956 0.708039 0.792664 5.08899 0.790477 10.4741C0.790477 12.1951 1.24192 13.8748 2.09999 15.3565L0.708496 20.4163L5.91048 19.0576C7.34941 19.8371 8.96149 20.2459 10.5998 20.2466H10.6042C16.0117 20.2466 20.4146 15.8657 20.4168 10.4806C20.4205 9.19741 20.1686 7.92621 19.6758 6.74048C19.1829 5.55475 18.4588 4.478 17.5453 3.57247ZM10.6042 18.5985H10.6009C9.14001 18.5986 7.70601 18.2074 6.44937 17.466L6.15205 17.2897L3.06518 18.0959L3.88828 15.1009L3.6948 14.7941C2.87803 13.5 2.44566 12.0023 2.44759 10.4741C2.44978 5.99847 6.10833 2.35729 10.6075 2.35729C11.679 2.35492 12.7403 2.56408 13.73 2.97266C14.7198 3.38124 15.6182 3.98113 16.3735 4.7376C17.1328 5.49047 17.7346 6.38565 18.1441 7.37139C18.5537 8.35714 18.7629 9.4139 18.7597 10.4806C18.7575 14.9562 15.0989 18.5985 10.6042 18.5985ZM15.0782 12.5182C14.8322 12.3953 13.6276 11.8057 13.4025 11.7241C13.1784 11.6425 13.0155 11.6022 12.8516 11.8459C12.6876 12.0896 12.2176 12.639 12.0744 12.8022C11.9312 12.9654 11.788 12.9849 11.5431 12.8631C11.2983 12.7412 10.508 12.4834 9.57122 11.6523C8.84213 11.005 8.35024 10.2064 8.20705 9.96167C8.06385 9.7169 8.19174 9.58526 8.31526 9.46342C8.42566 9.35463 8.56011 9.17839 8.68254 9.03587C8.80497 8.89336 8.84541 8.79219 8.92739 8.629C9.00937 8.46582 8.96893 8.3233 8.90662 8.20146C8.84541 8.07853 8.35461 6.87749 8.15021 6.38903C7.95236 5.91579 7.75014 5.97889 7.59929 5.97236C7.44307 5.966 7.28672 5.9631 7.13036 5.96366C7.00603 5.96681 6.88369 5.9955 6.77102 6.04791C6.65835 6.10033 6.55778 6.17535 6.4756 6.26827C6.25043 6.51305 5.61753 7.10269 5.61753 8.30372C5.61753 9.50476 6.49637 10.6655 6.6188 10.8287C6.74122 10.9919 8.34806 13.456 10.8075 14.5134C11.3934 14.7647 11.8503 14.9149 12.2055 15.028C12.7925 15.214 13.3271 15.1868 13.7501 15.1248C14.2212 15.0552 15.2006 14.5352 15.405 13.9651C15.6094 13.3951 15.6094 12.9066 15.5482 12.8043C15.487 12.7021 15.3219 12.6401 15.0782 12.5182Z" fill="white"/>
</svg>
