<svg width="17" height="11" viewBox="0 0 17 11" fill="none" xmlns="http://www.w3.org/2000/svg">
<path d="M8.9646 6.1636L8.96458 6.16357L8.96033 6.16646C8.93295 6.18505 8.89315 6.19839 8.85034 6.19839H8.84697C8.78433 6.19839 8.74416 6.17718 8.73115 6.1661L8.73047 6.16552L2.02765 0.485964H15.6619L9.27032 5.90824L9.26995 5.90856L8.98916 6.14738L8.98827 6.14797L8.9646 6.1636ZM10.8322 6.4865L15.7362 10.5372H1.91338L6.82802 6.45638L7.8063 7.28584L7.80738 7.28675C8.09606 7.52975 8.46702 7.65787 8.84921 7.65787C9.2311 7.65787 9.60226 7.52866 9.89106 7.28506L9.89195 7.28431L10.8322 6.4865ZM5.70332 5.50321L1.33801 9.12847V1.80419L5.70332 5.50321ZM16.3163 1.83478V9.13357L11.9574 5.53252L16.3163 1.83478Z" stroke="white" stroke-width="0.788333"/>
</svg>
