<svg height="384pt" viewBox="0 -53 384 384" width="384pt" xmlns="http://www.w3.org/2000/svg">
	<path fill="url(#paint0_linear)" d="m368 154.667969h-352c-8.832031 0-16-7.167969-16-16s7.167969-16 16-16h352c8.832031 0 16 7.167969 16 16s-7.167969 16-16 16zm0 0"/>
	<path fill="url(#paint0_linear)" d="m368 32h-352c-8.832031 0-16-7.167969-16-16s7.167969-16 16-16h352c8.832031 0 16 7.167969 16 16s-7.167969 16-16 16zm0 0"/>
	<path fill="url(#paint0_linear)" d="m368 277.332031h-352c-8.832031 0-16-7.167969-16-16s7.167969-16 16-16h352c8.832031 0 16 7.167969 16 16s-7.167969 16-16 16zm0 0"/>

<defs>
<linearGradient id="paint0_linear" x1="9.85437" y1="0.046875" x2="9.85437" y2="11.5434" gradientUnits="userSpaceOnUse">
<stop stop-color="#F89C49"/>
<stop offset="1" stop-color="#EF4537"/>
</linearGradient>
</defs>
</svg>