<svg width="19" height="19" viewBox="0 0 19 19" fill="none" xmlns="http://www.w3.org/2000/svg">
<path d="M9.56274 4.82519C6.94137 4.82519 4.82581 6.94075 4.82581 9.56212C4.82581 12.1835 6.94137 14.299 9.56274 14.299C12.1841 14.299 14.2997 12.1835 14.2997 9.56212C14.2997 6.94075 12.1841 4.82519 9.56274 4.82519ZM9.56274 12.6408C7.86751 12.6408 6.48408 11.2573 6.48408 9.56212C6.48408 7.86689 7.86751 6.48346 9.56274 6.48346C11.258 6.48346 12.6414 7.86689 12.6414 9.56212C12.6414 11.2573 11.258 12.6408 9.56274 12.6408ZM14.4937 3.52721C13.8816 3.52721 13.3874 4.02146 13.3874 4.63349C13.3874 5.24553 13.8816 5.73978 14.4937 5.73978C15.1057 5.73978 15.6 5.24784 15.6 4.63349C15.6001 4.48816 15.5716 4.34422 15.5161 4.20992C15.4606 4.07562 15.3791 3.95359 15.2763 3.85083C15.1736 3.74806 15.0515 3.66658 14.9172 3.61105C14.7829 3.55552 14.639 3.52703 14.4937 3.52721ZM18.7964 9.56212C18.7964 8.28723 18.8079 7.0239 18.7364 5.75133C18.6648 4.2732 18.3276 2.96137 17.2467 1.88049C16.1635 0.797298 14.854 0.462411 13.3758 0.390814C12.101 0.319217 10.8376 0.330765 9.56505 0.330765C8.29016 0.330765 7.02683 0.319217 5.75426 0.390814C4.27613 0.462411 2.9643 0.799608 1.88342 1.88049C0.800228 2.96368 0.46534 4.2732 0.393744 5.75133C0.322147 7.02621 0.333695 8.28954 0.333695 9.56212C0.333695 10.8347 0.322147 12.1003 0.393744 13.3729C0.46534 14.851 0.802538 16.1629 1.88342 17.2437C2.9666 18.3269 4.27613 18.6618 5.75426 18.7334C7.02914 18.805 8.29247 18.7935 9.56505 18.7935C10.8399 18.7935 12.1033 18.805 13.3758 18.7334C14.854 18.6618 16.1658 18.3246 17.2467 17.2437C18.3299 16.1606 18.6648 14.851 18.7364 13.3729C18.8103 12.1003 18.7964 10.837 18.7964 9.56212ZM16.764 15.0081C16.5954 15.4284 16.3921 15.7425 16.0665 16.0659C15.7408 16.3915 15.429 16.5948 15.0087 16.7634C13.7939 17.2461 10.9092 17.1375 9.56274 17.1375C8.21626 17.1375 5.3293 17.2461 4.11446 16.7657C3.69412 16.5971 3.38002 16.3938 3.05668 16.0682C2.73103 15.7425 2.52779 15.4307 2.35919 15.0104C1.8788 13.7933 1.98735 10.9086 1.98735 9.56212C1.98735 8.21564 1.8788 5.32868 2.35919 4.11384C2.52779 3.6935 2.73103 3.3794 3.05668 3.05606C3.38233 2.73272 3.69412 2.52717 4.11446 2.35857C5.3293 1.87818 8.21626 1.98673 9.56274 1.98673C10.9092 1.98673 13.7962 1.87818 15.011 2.35857C15.4314 2.52717 15.7455 2.73041 16.0688 3.05606C16.3944 3.38171 16.5977 3.6935 16.7663 4.11384C17.2467 5.32868 17.1381 8.21564 17.1381 9.56212C17.1381 10.9086 17.2467 13.7933 16.764 15.0081Z" fill="white"/>
</svg>
