<svg width="19" height="19" viewBox="0 0 19 19" fill="none" xmlns="http://www.w3.org/2000/svg">
<path d="M16.6871 12.7745L14.1841 12.4887C13.8898 12.4541 13.5915 12.4867 13.3116 12.584C13.0317 12.6813 12.7775 12.8408 12.5681 13.0504L10.7549 14.8636C7.95748 13.4408 5.68372 11.1671 4.26099 8.36967L6.08401 6.54665C6.50774 6.12292 6.71468 5.53167 6.6457 4.93056L6.35993 2.44731C6.30406 1.9666 6.07336 1.52323 5.71176 1.2016C5.35015 0.879968 4.8829 0.702551 4.39895 0.703126H2.69418C1.58066 0.703126 0.654367 1.62942 0.723346 2.74294C1.24562 11.1584 7.97601 17.8789 16.3816 18.4012C17.4951 18.4702 18.4214 17.5439 18.4214 16.4304V14.7256C18.4313 13.7303 17.6824 12.8927 16.6871 12.7745Z" fill="white"/>
</svg>
