<svg width="15" height="19" viewBox="0 0 15 19" fill="none" xmlns="http://www.w3.org/2000/svg">
<path fill-rule="evenodd" clip-rule="evenodd" d="M7.69903 0.498047C2.83599 0.498047 0.384277 3.96868 0.384277 6.86384C0.384277 8.61591 1.05042 10.1748 2.48026 10.7562C2.71479 10.8518 2.92468 10.7592 2.99268 10.501C3.03998 10.3227 3.15231 9.87133 3.20158 9.68312C3.27056 9.42789 3.24396 9.33822 3.05476 9.11552C2.64187 8.63168 2.37876 8.00495 2.37876 7.11709C2.37876 4.5422 4.31412 2.23731 7.41818 2.23731C10.1665 2.23731 11.6762 3.90956 11.6762 6.14153C11.6762 9.08004 10.3705 11.5593 8.43119 11.5593C7.36103 11.5593 6.55988 10.6774 6.81609 9.5964C7.12453 8.30649 7.71972 6.91311 7.71972 5.98091C7.71972 5.14724 7.27037 4.45154 6.33915 4.45154C5.24534 4.45154 4.36635 5.57886 4.36635 7.08851C4.36635 8.05127 4.69252 8.70164 4.69252 8.70164C4.69252 8.70164 3.5721 13.4257 3.376 14.2535C2.98479 15.9011 3.31786 17.9212 3.34545 18.1262C3.36221 18.2464 3.5179 18.275 3.58885 18.1843C3.68936 18.0523 4.99307 16.451 5.43651 14.8497C5.56166 14.3964 6.15586 12.0491 6.15586 12.0491C6.5116 12.7241 7.55121 13.3193 8.65586 13.3193C11.9462 13.3193 14.1781 10.3325 14.1781 6.33565C14.1781 3.31338 11.6072 0.498047 7.69903 0.498047Z" fill="white"/>
</svg>
