<svg width="35" height="35" viewBox="0 0 35 35" fill="none" xmlns="http://www.w3.org/2000/svg">
<g clip-path="url(#clip0)">
<path d="M17.4853 27.7576C17.4853 28.3478 17.1443 28.884 16.6106 29.1343C16.4043 29.2319 16.1831 29.279 15.9635 29.279C15.6156 29.279 15.271 29.1595 14.9926 28.9287L6.67473 22.0361H2.24462C1.40448 22.0368 0.723145 21.3551 0.723145 20.515V14.4532C0.723145 13.6127 1.40448 12.9314 2.24462 12.9314H6.67509L14.993 6.03881C15.4474 5.66213 16.0776 5.58183 16.611 5.83391C17.1443 6.08418 17.4857 6.62075 17.4857 7.21062L17.4853 27.7576ZM23.3325 25.3801C23.2954 25.3826 23.2597 25.3841 23.223 25.3841C22.8211 25.3841 22.4336 25.2253 22.1473 24.9386L21.9439 24.7344C21.4102 24.2018 21.3475 23.3581 21.7969 22.7524C22.9363 21.2161 23.5377 19.395 23.5377 17.4846C23.5377 15.4298 22.8549 13.5025 21.5629 11.9108C21.071 11.3058 21.1163 10.4271 21.6677 9.87617L21.8708 9.67271C22.1747 9.36877 22.582 9.20312 23.0228 9.22941C23.452 9.25101 23.8528 9.45304 24.1251 9.78578C25.9173 11.9789 26.8641 14.6415 26.8641 17.485C26.8641 20.1333 26.0268 22.6541 24.4423 24.7737C24.1776 25.1269 23.7729 25.3488 23.3325 25.3801ZM29.6229 30.0821C29.3478 30.4073 28.9499 30.6025 28.5238 30.6205C28.503 30.6212 28.4817 30.6219 28.4601 30.6219C28.0571 30.6219 27.6704 30.4627 27.3841 30.1764L27.1842 29.9766C26.6257 29.4184 26.5879 28.5257 27.0956 27.9214C29.5494 25.0031 30.9013 21.2968 30.9013 17.4846C30.9013 13.5194 29.454 9.70224 26.827 6.73635C26.2944 6.13424 26.3214 5.22279 26.8882 4.65382L27.0877 4.45395C27.3837 4.1565 27.7683 3.99265 28.2095 4.00669C28.6283 4.01858 29.0244 4.20368 29.3028 4.51697C32.4782 8.09217 34.2273 12.698 34.2273 17.4846C34.228 22.0901 32.5928 26.5642 29.6229 30.0821Z" fill="#F89C49"/>
<path d="M17.4853 27.7576C17.4853 28.3478 17.1443 28.884 16.6106 29.1343C16.4043 29.2319 16.1831 29.279 15.9635 29.279C15.6156 29.279 15.271 29.1595 14.9926 28.9287L6.67473 22.0361H2.24462C1.40448 22.0368 0.723145 21.3551 0.723145 20.515V14.4532C0.723145 13.6127 1.40448 12.9314 2.24462 12.9314H6.67509L14.993 6.03881C15.4474 5.66213 16.0776 5.58183 16.611 5.83391C17.1443 6.08418 17.4857 6.62075 17.4857 7.21062L17.4853 27.7576ZM23.3325 25.3801C23.2954 25.3826 23.2597 25.3841 23.223 25.3841C22.8211 25.3841 22.4336 25.2253 22.1473 24.9386L21.9439 24.7344C21.4102 24.2018 21.3475 23.3581 21.7969 22.7524C22.9363 21.2161 23.5377 19.395 23.5377 17.4846C23.5377 15.4298 22.8549 13.5025 21.5629 11.9108C21.071 11.3058 21.1163 10.4271 21.6677 9.87617L21.8708 9.67271C22.1747 9.36877 22.582 9.20312 23.0228 9.22941C23.452 9.25101 23.8528 9.45304 24.1251 9.78578C25.9173 11.9789 26.8641 14.6415 26.8641 17.485C26.8641 20.1333 26.0268 22.6541 24.4423 24.7737C24.1776 25.1269 23.7729 25.3488 23.3325 25.3801ZM29.6229 30.0821C29.3478 30.4073 28.9499 30.6025 28.5238 30.6205C28.503 30.6212 28.4817 30.6219 28.4601 30.6219C28.0571 30.6219 27.6704 30.4627 27.3841 30.1764L27.1842 29.9766C26.6257 29.4184 26.5879 28.5257 27.0956 27.9214C29.5494 25.0031 30.9013 21.2968 30.9013 17.4846C30.9013 13.5194 29.454 9.70224 26.827 6.73635C26.2944 6.13424 26.3214 5.22279 26.8882 4.65382L27.0877 4.45395C27.3837 4.1565 27.7683 3.99265 28.2095 4.00669C28.6283 4.01858 29.0244 4.20368 29.3028 4.51697C32.4782 8.09217 34.2273 12.698 34.2273 17.4846C34.228 22.0901 32.5928 26.5642 29.6229 30.0821Z" fill="#F89C49"/>
<path d="M23.3326 25.384C23.2955 25.3865 23.2599 25.388 23.2231 25.388C22.8212 25.388 22.4338 25.2292 22.1475 24.9425L21.944 24.7383C21.4103 24.2057 21.3477 23.362 21.7971 22.7563C22.9365 21.22 23.5379 19.3989 23.5379 17.4885C23.5379 15.4337 22.8551 13.5064 21.563 11.9147C21.0711 11.3097 21.1165 10.4311 21.6678 9.88008L21.8709 9.67662C22.1748 9.37268 22.5821 9.20703 23.0229 9.23332C23.4522 9.25493 23.853 9.45695 24.1252 9.7897C25.9175 11.9828 26.8642 14.6455 26.8642 17.4889C26.8642 20.1372 26.027 22.658 24.4425 24.7776C24.1778 25.1309 23.773 25.3527 23.3326 25.384ZM29.623 30.086C29.3479 30.4112 28.95 30.6064 28.524 30.6244C28.5031 30.6251 28.4819 30.6258 28.4602 30.6258C28.0573 30.6258 27.6705 30.4666 27.3842 30.1804L27.1844 29.9805C26.6258 29.4223 26.588 28.5296 27.0958 27.9253C29.5496 25.007 30.9015 21.3007 30.9015 17.4885C30.9015 13.5233 29.4542 9.70615 26.8271 6.74026C26.2945 6.13815 26.3215 5.22671 26.8884 4.65773L27.0879 4.45787C27.3839 4.16041 27.7685 3.99656 28.2096 4.01061C28.6284 4.02249 29.0245 4.20759 29.3029 4.52089C32.4784 8.09609 34.2275 12.7019 34.2275 17.4885C34.2282 22.094 32.5929 26.5681 29.623 30.086Z" fill="#EF4537"/>
<path d="M23.3326 25.384C23.2955 25.3865 23.2599 25.388 23.2231 25.388C22.8212 25.388 22.4338 25.2292 22.1475 24.9425L21.944 24.7383C21.4103 24.2057 21.3477 23.362 21.7971 22.7563C22.9365 21.22 23.5379 19.3989 23.5379 17.4885C23.5379 15.4337 22.8551 13.5064 21.563 11.9147C21.0711 11.3097 21.1165 10.4311 21.6678 9.88008L21.8709 9.67662C22.1748 9.37268 22.5821 9.20703 23.0229 9.23332C23.4522 9.25493 23.853 9.45695 24.1252 9.7897C25.9175 11.9828 26.8642 14.6455 26.8642 17.4889C26.8642 20.1372 26.027 22.658 24.4425 24.7776C24.1778 25.1309 23.773 25.3527 23.3326 25.384ZM29.623 30.086C29.3479 30.4112 28.95 30.6064 28.524 30.6244C28.5031 30.6251 28.4819 30.6258 28.4602 30.6258C28.0573 30.6258 27.6705 30.4666 27.3842 30.1804L27.1844 29.9805C26.6258 29.4223 26.588 28.5296 27.0958 27.9253C29.5496 25.007 30.9015 21.3007 30.9015 17.4885C30.9015 13.5233 29.4542 9.70615 26.8271 6.74026C26.2945 6.13815 26.3215 5.22671 26.8884 4.65773L27.0879 4.45787C27.3839 4.16041 27.7685 3.99656 28.2096 4.01061C28.6284 4.02249 29.0245 4.20759 29.3029 4.52089C32.4784 8.09609 34.2275 12.7019 34.2275 17.4885C34.2282 22.094 32.5929 26.5681 29.623 30.086Z" fill="#EF4537"/>
</g>
<defs>
<clipPath id="clip0">
<rect width="33.5042" height="33.5042" fill="white" transform="translate(0.723145 0.561523)"/>
</clipPath>
</defs>
</svg>
