<svg width="21" height="19" viewBox="0 0 21 19" fill="none" xmlns="http://www.w3.org/2000/svg">
<path fill-rule="evenodd" clip-rule="evenodd" d="M18.6091 18.2484H1.83339C1.02929 18.2484 0.37793 17.6779 0.37793 16.9743V1.76144C0.37793 1.05884 1.02929 0.488281 1.83339 0.488281H18.6091C19.4122 0.488281 20.0636 1.05884 20.0636 1.76144V16.9743C20.0636 17.6779 19.4122 18.2484 18.6091 18.2484ZM3.78923 15.3228H6.68832V7.30448H3.78923V15.3228ZM5.25863 3.4398C4.26631 3.4398 3.6189 4.03794 3.6189 4.82529C3.6189 5.59392 4.24759 6.21079 5.2202 6.21079H5.23892C6.24996 6.21079 6.87865 5.59392 6.87865 4.82529C6.86092 4.03794 6.24996 3.4398 5.25863 3.4398ZM17.1419 10.7254C17.1419 8.2619 15.7111 7.11586 13.8043 7.11586C12.2651 7.11586 11.5773 7.89336 11.192 8.44026V7.30408H8.29289C8.33132 8.05694 8.29289 15.3224 8.29289 15.3224H11.192V10.8447C11.192 10.6062 11.2107 10.3658 11.2876 10.1953C11.4965 9.71638 11.9744 9.22071 12.7746 9.22071C13.824 9.22071 14.2428 9.95583 14.2428 11.0339V15.3224H17.1419V10.7254ZM11.1722 8.46759C11.1781 8.45872 11.1859 8.44985 11.1919 8.44098V8.46759H11.1722Z" fill="#2F80ED"/>
</svg>
